<?xml version="1.0" encoding="utf-8"?>
<!-- Generator: Adobe Illustrator 22.0.1, SVG Export Plug-In . SVG Version: 6.00 Build 0)  -->
<svg version="1.1" id="Calque_1" xmlns="http://www.w3.org/2000/svg" xmlns:xlink="http://www.w3.org/1999/xlink" x="0px" y="0px"
	 width="576px" height="512px" viewBox="0 0 576 512" style="enable-background:new 0 0 576 512;" xml:space="preserve">
<style type="text/css">
	.st0{fill:#495466;}
	.st1{fill:#ffa600;}
</style>
<path class="st0" d="M152.9,386.5l18.5-20.9c1.9-2.1,1.6-5.3-0.5-7.1L49.9,256l121-102.5c2.1-1.8,2.4-5,0.5-7.1l-18.5-20.9
	c-1.8-2.1-5-2.3-7.1-0.4L1.7,252.3c-2.3,2-2.3,5.5,0,7.5L145.8,387C147.9,388.8,151.1,388.6,152.9,386.5L152.9,386.5z M430.2,386.9
	l144.1-127.2c2.3-2,2.3-5.5,0-7.5L430.2,125.1c-2.1-1.8-5.2-1.6-7.1,0.4l-18.5,20.9c-1.9,2.1-1.6,5.3,0.5,7.1l121,102.5l-121,102.5
	c-2.1,1.8-2.4,5-0.5,7.1l18.5,20.9C424.9,388.6,428.1,388.8,430.2,386.9z"/>
<path class="st1" d="M228.5,511.8l-25-7.1c-3.2-0.9-5-4.2-4.1-7.4L340.1,4.4c0.9-3.2,4.2-5,7.4-4.1l25,7.1c3.2,0.9,5,4.2,4.1,7.4
	L235.9,507.6C235,510.8,231.6,512.7,228.5,511.8L228.5,511.8z"/>
</svg>
