<?xml version="1.0" encoding="utf-8"?>
<!-- Generator: Adobe Illustrator 22.0.1, SVG Export Plug-In . SVG Version: 6.00 Build 0)  -->
<svg version="1.1" id="Calque_1" xmlns="http://www.w3.org/2000/svg" xmlns:xlink="http://www.w3.org/1999/xlink" x="0px" y="0px"
	 width="448px" height="512px" viewBox="0 0 448 512" style="enable-background:new 0 0 448 512;" xml:space="preserve">
<style type="text/css">
	.st0{fill:#495466;}
	.st1{fill:#2AB3D7;}
</style>
<path class="st0" d="M320,352h-4.7c-12.2,0-24,2.9-35.5,6.8c-36.2,12.3-75.4,12.3-111.6,0c-11.5-3.9-23.3-6.8-35.4-6.8H128
	C57.3,352,0,409.3,0,480c0,17.7,14.3,32,32,32h384c17.7,0,32-14.3,32-32C448,409.3,390.7,352,320,352z M32,480c0.1-53,43-95.9,96-96
	h4.7c6.9,0,14.9,1.6,25.2,5.1c42.9,14.5,89.3,14.5,132.2,0c10.3-3.5,18.3-5.1,25.2-5.1h4.7c53,0.1,95.9,43,96,96L32,480z M224,96
	c52.8-0.2,95.8,42.4,96,95.1c0.1,23.9-8.7,46.9-24.8,64.6c0,0.1,0.1,0.1,0.2,0.2h8.6c16.5,0,31.8-8.6,40.5-22.6
	c4.5-13.1,7.5-26.8,7.5-41.4c0-70.7-57.3-128-128-128S96,121.3,96,192c0,40.4,19.1,76,48.4,99.5c-0.1-1.2-0.4-2.3-0.4-3.5
	c0.1-11.3,3.2-22.3,8.9-32c-35.6-39-32.8-99.5,6.2-135C176.8,104.8,200,95.9,224,96z"/>
<path class="st1" d="M48,224c8.8,0,16-7.2,16-16v-16c0-88.2,71.8-160,160-160s160,71.8,160,160v16c0,44.2-35.8,80-80,80h-32
	c0-17.7-14.3-32-32-32h-32c-17.7,0-32,14.3-32,32s14.3,32,32,32h96c61.8-0.1,111.9-50.2,112-112v-16C416,86.1,329.9,0,224,0
	S32,86.1,32,192v16C32,216.8,39.2,224,48,224z"/>
</svg>
