<?xml version="1.0" encoding="utf-8"?>
<!-- Generator: Adobe Illustrator 22.0.1, SVG Export Plug-In . SVG Version: 6.00 Build 0)  -->
<svg version="1.1" id="Calque_1" xmlns="http://www.w3.org/2000/svg" xmlns:xlink="http://www.w3.org/1999/xlink" x="0px" y="0px"
	 width="576.1px" height="108px" viewBox="0 0 576.1 108" style="enable-background:new 0 0 576.1 108;" xml:space="preserve">
<style type="text/css">
	.st0{fill:#FFFFFF;}
</style>
<g>
	<g>
		<path class="st0" d="M1,63.7c0.3-0.2,0.9-0.6,1.8-1.2c0.8-0.5,1.8-1.2,2.9-1.9c1.1-0.7,2.3-1.6,3.6-2.5c1.3-0.9,2.6-1.8,3.8-2.7
			l0.3-2.7C14,47.1,15,42,16.3,37.3c1.3-4.7,2.8-8.9,4.6-12.7c1.8-3.8,3.7-7.1,5.8-9.9c2.1-2.8,4.2-5.2,6.4-7.1
			c2.2-1.9,4.3-3.3,6.4-4.3c2.1-0.9,4.1-1.4,5.9-1.4c1.3,0,2.6,0.3,3.7,0.8c1.1,0.5,2.1,1.3,2.9,2.3c0.8,1,1.4,2.3,1.9,3.8
			s0.7,3.3,0.7,5.3c0,2.5-0.4,5.1-1.1,7.8c-0.7,2.7-1.8,5.5-3.2,8.2c-1.4,2.8-3,5.5-4.9,8.3c-1.9,2.8-4,5.4-6.4,8
			c-2.3,2.6-4.9,5-7.6,7.3C28.7,56,25.9,58,23,59.8c-0.1,1.6-0.1,2.9-0.1,3.9c0,0.9-0.1,1.7-0.1,2.2c0,0.5,0,0.8,0,1
			c0,0.2,0,0.3,0,0.4c0,0.2,0,0.5,0.1,0.7c0.1,0.2,0.3,0.4,0.6,0.5c0.3,0.1,0.7,0.2,1.1,0.3c0.5,0.1,1.1,0.1,1.9,0.1
			c1.2,0,2.8-0.3,4.8-0.9l13.4-3.8c0.2-0.1,0.4-0.1,0.6-0.1c0.2,0,0.4,0,0.6,0c0.7,0,1.2,0.1,1.7,0.4s0.9,0.6,1.2,1
			c0.3,0.4,0.6,0.9,0.7,1.5c0.2,0.6,0.2,1.1,0.2,1.7c0,0.5-0.1,1.1-0.2,1.6c-0.2,0.5-0.4,1-0.7,1.4c-0.3,0.4-0.7,0.8-1.2,1.1
			c-0.5,0.3-1,0.5-1.7,0.6c-2.6,1-5.3,2-8,2.8c-1.2,0.3-2.4,0.7-3.7,1c-1.3,0.3-2.6,0.6-4,0.9c-1.3,0.3-2.7,0.5-4.1,0.6
			c-1.4,0.2-2.7,0.2-4,0.2c-2,0-3.6-0.3-4.9-1c-1.3-0.7-2.3-1.6-3-2.8c-0.7-1.2-1.2-2.5-1.5-4c-0.3-1.5-0.4-3.1-0.4-4.8
			c-2.3,1.7-4.2,3-5.8,4c-1.6,1-2.6,1.5-3.1,1.5c-0.5,0-0.9-0.2-1.3-0.5c-0.4-0.3-0.8-0.7-1.1-1.2c-0.3-0.5-0.6-1.1-0.8-1.7
			C0.1,67.7,0,67,0,66.4c0-0.5,0.1-1,0.2-1.5C0.3,64.4,0.6,64,1,63.7z M23.7,49.7c1.4-1.4,2.8-3,4.3-4.6c1.5-1.7,2.9-3.4,4.4-5.2
			c1.5-1.8,2.9-3.7,4.2-5.6c1.3-1.9,2.6-3.8,3.6-5.7c1.1-1.9,2-3.7,2.7-5.5c0.7-1.8,1.2-3.5,1.4-5.1c0.1-0.5,0.1-1,0.2-1.5
			c0-0.5,0-1,0-1.4c0-1.5-0.2-2.6-0.6-3.3c-0.4-0.7-1-1-1.7-1c-0.9,0-1.9,0.4-3,1.3c-1.1,0.9-2.3,2.2-3.6,3.8
			c-1.3,1.7-2.5,3.7-3.8,6s-2.5,5-3.6,7.8c-1.1,2.9-2,6-2.9,9.4C24.6,42.4,24,46,23.7,49.7z"/>
		<path class="st0" d="M66.4,76.8c-2.5,0-4.7-0.5-6.6-1.4c-1.9-0.9-3.4-2.1-4.7-3.7c-1.3-1.5-2.2-3.3-2.8-5.3
			c-0.6-2-0.9-4.1-0.9-6.3c0-1.5,0.1-3.1,0.4-4.7c0.3-1.7,0.7-3.3,1.3-4.9c0.6-1.6,1.4-3.1,2.3-4.6c0.9-1.5,2-2.7,3.2-3.8
			c1.2-1.1,2.6-2,4.1-2.6c1.5-0.7,3.2-1,5-1c1.5,0,2.9,0.2,4.2,0.7c1.3,0.5,2.4,1.2,3.3,2c0.9,0.9,1.7,1.9,2.2,3.1
			c0.5,1.2,0.8,2.6,0.8,4.1c0,1.7-0.4,3.3-1.2,5c-0.8,1.7-1.9,3.2-3.4,4.7c-1.4,1.5-3.2,2.8-5.1,3.9c-2,1.1-4.1,2-6.5,2.7
			c0.4,0.7,0.8,1.3,1.2,1.8c0.4,0.5,0.8,0.9,1.2,1.1c0.4,0.3,0.8,0.5,1.3,0.6c0.4,0.1,0.9,0.2,1.4,0.2c1.6,0,3.3-0.3,5.1-1
			c1.8-0.6,3.5-1.4,5.2-2.4c1.7-1,3.3-2,4.8-3.1c1.5-1.1,2.8-2.2,3.8-3.2L91,64c-2.3,2.4-4.8,4.6-7.5,6.4c-1.1,0.8-2.4,1.6-3.7,2.4
			c-1.3,0.8-2.7,1.5-4.2,2.1c-1.5,0.6-3,1.1-4.5,1.4C69.6,76.6,68,76.8,66.4,76.8z M61.1,58c1,0,2-0.2,3.1-0.7
			c1.1-0.5,2.2-1.1,3.2-1.9c1-0.8,1.8-1.6,2.5-2.5c0.7-0.9,1-1.8,1-2.6c0-1.2-0.2-2.2-0.7-3c-0.4-0.8-1-1.2-1.6-1.2
			c-1.1,0-2.1,0.2-2.9,0.6s-1.5,1-2,1.7c-0.5,0.7-1,1.5-1.3,2.3c-0.3,0.9-0.6,1.7-0.8,2.6c-0.2,0.9-0.3,1.7-0.3,2.6
			C61.1,56.7,61.1,57.4,61.1,58z"/>
		<path class="st0" d="M83.9,61.5c1.5-1.3,2.7-2.3,3.6-3.2c0.9-0.9,1.7-1.6,2.4-2.3c0.7-0.7,1.3-1.4,1.8-2.1
			c0.5-0.7,1.2-1.6,1.9-2.6c0.7-1,1.7-2.2,2.7-3.6c1.1-1.4,2.5-3.2,4.2-5.3c0.3-0.5,0.7-0.9,1.2-1.4c0.4-0.5,0.9-0.9,1.4-1.2
			c0.5-0.4,1.1-0.7,1.7-0.9c0.6-0.2,1.3-0.3,2.1-0.3c1.3,0,2.3,0.1,3,0.4c0.7,0.3,1.2,0.6,1.5,1c0.3,0.4,0.5,0.8,0.6,1.3
			c0.1,0.4,0.1,0.8,0.1,1.1c0,0.6-0.3,1.3-0.8,2.1c-0.5,0.8-1.1,1.5-1.7,2.2c-0.6,0.7-1.2,1.4-1.7,2c-0.5,0.6-0.9,1-0.9,1.3
			c0,0.8,0.1,1.6,0.2,2.3c0.1,0.7,0.3,1.3,0.5,2c0.2,0.7,0.4,1.3,0.6,2.1c0.2,0.7,0.4,1.6,0.6,2.5c0.2,1,0.4,2.1,0.5,3.3
			c0.1,1.3,0.2,2.7,0.2,4.4c1-0.6,2-1.2,3.1-1.7c1.1-0.5,2.3-1.1,3.5-1.6c1.2-0.6,2.4-1.2,3.7-1.9c1.3-0.7,2.5-1.5,3.8-2.5l0,9
			c-1.7,1.3-3.6,2.5-5.7,3.6c-2.2,1.1-4.5,2.1-6.8,3c-2.4,0.9-4.8,1.5-7.2,2c-2.4,0.5-4.8,0.7-6.9,0.7c-1.6,0-3-0.1-4.4-0.4
			c-1.4-0.3-2.6-0.8-3.6-1.4c-1-0.6-1.9-1.4-2.5-2.5c-0.6-1-1-2.2-1.2-3.7c-0.4,0.1-0.7,0.1-1.1,0.2c-0.4,0-0.7,0-1.1,0
			c-0.4,0-0.8,0-1.2,0c-0.4,0-0.7-0.1-1-0.3c-0.3-0.2-0.5-0.5-0.6-0.8c-0.2-0.4-0.2-0.9-0.2-1.7c0-0.6,0.2-1.2,0.5-1.8
			c0.3-0.5,0.7-1,1.1-1.5c0.4-0.4,0.9-0.8,1.3-1.1C83.4,61.9,83.7,61.6,83.9,61.5z M89,66.6c0.3,0,0.7,0.2,1.1,0.6
			c0.4,0.4,0.8,0.8,1.3,1.3c0.5,0.5,1.1,0.9,1.8,1.3c0.7,0.4,1.4,0.6,2.3,0.6c1,0,1.9-0.2,2.6-0.5c0.7-0.3,1.2-0.8,1.6-1.4
			c0.4-0.6,0.7-1.2,0.8-2c0.2-0.8,0.2-1.6,0.2-2.4c0-0.7,0-1.5-0.1-2.2c-0.1-0.7-0.2-1.5-0.4-2.1c-0.1-0.7-0.3-1.3-0.5-1.9
			c-0.2-0.6-0.3-1.1-0.5-1.5L89,66.6z"/>
		<path class="st0" d="M146.1,23.6c0-2.2,0.5-4.2,1.4-5.9c0.9-1.7,2.2-3.1,3.9-4.3c1.7-1.2,3.7-2.1,6-2.9c2.3-0.8,4.9-1.4,7.7-1.8
			c2.8-0.4,5.8-0.7,9-0.9c3.2-0.2,6.5-0.2,9.9-0.2c4.6,0,9.5,0.2,14.6,0.6c5.1,0.4,10.4,1.1,15.9,2c1.3,0.3,2.2,0.7,2.7,1.4
			c0.5,0.7,0.8,1.5,0.8,2.3c0,0.5-0.1,1.1-0.4,1.6c-0.2,0.5-0.6,1-1,1.4c-0.4,0.4-0.9,0.8-1.4,1c-0.5,0.3-1.1,0.4-1.7,0.4
			c-2.1,0-4.2-0.1-6.4-0.3c-2.2-0.2-4.5-0.5-7-0.7c-2.4-0.3-4.9-0.5-7.5-0.8c-2.6-0.3-5.2-0.5-7.9-0.6c-0.5,3-1.1,6.2-1.8,9.6
			c-0.7,3.4-1.6,7-2.5,10.5s-1.8,7.2-2.8,10.7c-1,3.6-1.9,7-2.8,10.2c-0.9,3.2-1.8,6.2-2.5,9c-0.8,2.7-1.4,5.1-1.9,7.1
			c-0.2,0.9-0.5,1.7-1,2.5c-0.4,0.8-0.9,1.4-1.5,2c-0.5,0.6-1.1,1-1.7,1.3c-0.6,0.3-1.1,0.5-1.6,0.5c-1.5,0-2.8-0.4-3.8-1.1
			c-1-0.7-1.5-1.9-1.5-3.5c0-0.5,0.1-1.1,0.2-1.7c0.3-2.4,0.8-4.8,1.4-7.2c0.6-2.3,1.2-4.8,2-7.3c0.8-2.5,1.7-5.2,2.6-8.1
			c1-2.9,2.1-6,3.3-9.4c1.2-3.4,2.5-7.2,3.9-11.3c1.4-4.1,2.9-8.7,4.5-13.8c-1.4,0.1-2.8,0.2-4.3,0.4c-1.5,0.1-2.9,0.3-4.2,0.5
			c-1.4,0.2-2.7,0.5-3.8,0.9c-1.2,0.3-2.2,0.8-3.1,1.3c-0.9,0.5-1.6,1.2-2.1,1.9c-0.5,0.7-0.8,1.6-0.8,2.6c0,0.1,0,0.3-0.1,0.9
			c-0.1,0.5-0.3,1.1-0.7,1.7c-0.4,0.6-1,1.2-1.9,1.7c-0.9,0.5-2.1,0.8-3.7,0.8c-1.6,0-2.8-0.3-3.7-0.8c-0.9-0.5-1.5-1.1-1.9-1.8
			C146.4,25.4,146.1,24.6,146.1,23.6z"/>
		<path class="st0" d="M229.8,68.3c-1,0.9-2.2,1.8-3.6,2.8c-1.4,1-3,1.9-4.6,2.8c-1.7,0.8-3.3,1.5-5.1,2.1c-1.7,0.6-3.4,0.8-4.9,0.8
			c-1.4,0-2.6-0.2-3.5-0.6c-0.9-0.4-1.7-0.9-2.3-1.6c-0.6-0.7-1-1.5-1.3-2.5c-0.3-1-0.4-2.1-0.4-3.3c0-1.7,0.2-3.6,0.6-5.9
			c0.4-2.2,0.9-4.5,1.4-6.9c0.6-2.4,1.2-4.8,1.8-7.1c0.6-2.4,1.2-4.6,1.7-6.6c0.2-0.7,0.6-1.3,1.1-1.8c0.6-0.5,1.2-0.9,1.9-1.2
			c0.7-0.3,1.4-0.5,2.2-0.7c0.8-0.1,1.4-0.2,2.1-0.2c1.1,0,1.9,0.2,2.3,0.6c0.4,0.4,0.6,1,0.6,1.7c0,0.6-0.1,1.4-0.4,2.5
			c-0.3,1.1-0.6,2.4-1,3.8c-0.4,1.4-0.8,2.9-1.3,4.5c-0.5,1.6-0.9,3.2-1.3,4.8c-0.4,1.6-0.7,3.2-1,4.7c-0.3,1.5-0.4,2.9-0.4,4.1
			c0,1.2,0.1,2.2,0.4,2.9c0.3,0.7,0.8,1.1,1.6,1.1c1,0,2-0.3,3.2-1c1.2-0.7,2.4-1.5,3.6-2.4c1.2-0.9,2.4-1.9,3.5-2.9
			c1.1-1,2.2-1.9,3-2.6V68.3z M212,27.2c0-0.6,0.1-1.3,0.4-2.1c0.3-0.8,0.7-1.5,1.3-2.2c0.6-0.7,1.4-1.3,2.4-1.7
			c1-0.5,2.2-0.7,3.7-0.7c0.9,0,1.8,0.1,2.6,0.3c0.8,0.2,1.5,0.5,2.2,1c0.6,0.4,1.1,1,1.5,1.7c0.4,0.7,0.5,1.6,0.5,2.6
			c0,0.9-0.1,1.8-0.4,2.6c-0.3,0.9-0.8,1.6-1.4,2.3s-1.4,1.2-2.4,1.6c-1,0.4-2.1,0.6-3.5,0.6c-2.3,0-4.1-0.6-5.2-1.7
			C212.5,30.5,212,29,212,27.2z"/>
		<path class="st0" d="M236.7,76.8c-1.4,0-2.8-0.6-4-1.9c-1.2-1.3-2.3-3-3.2-5.1c-0.9-2.1-1.6-4.6-2.2-7.4c-0.5-2.8-0.8-5.8-0.8-8.9
			c0-2.4,0.2-5,0.5-7.7c0.3-2.8,0.9-5.7,1.5-8.6c0.7-3,1.5-5.9,2.4-8.9c0.9-3,2-5.9,3.1-8.6c1.2-2.7,2.4-5.3,3.8-7.7
			c1.4-2.4,2.8-4.5,4.3-6.2c1.5-1.8,3.1-3.2,4.7-4.2c1.6-1,3.3-1.5,5-1.5c1.1,0,2.1,0.3,2.8,0.8c0.7,0.5,1.3,1.2,1.8,2.1
			c0.4,0.9,0.7,1.8,0.9,2.9c0.2,1.1,0.3,2.2,0.3,3.3c0,2.5-0.3,5.1-0.9,7.7c-0.6,2.6-1.3,5.2-2.3,7.8c-1,2.6-2.1,5.3-3.4,7.9
			c-1.3,2.6-2.6,5.3-4,7.9c-1.4,2.6-2.8,5.2-4.2,7.7c-1.4,2.5-2.7,5-3.9,7.4c-0.1,0.3-0.3,0.6-0.4,1c-0.1,0.4-0.3,0.9-0.4,1.4
			c-0.1,0.5-0.3,1-0.4,1.6c-0.1,0.6-0.2,1.1-0.3,1.6v0.6c0,0.7,0.1,1.4,0.2,2c0.1,0.7,0.3,1.2,0.5,1.8c0.2,0.5,0.4,0.9,0.7,1.2
			c0.2,0.3,0.5,0.5,0.7,0.5c0.5,0,1.1-0.1,1.7-0.3s1.3-0.5,2.1-0.9c0.7-0.4,1.5-0.8,2.3-1.2c0.8-0.5,1.5-0.9,2.2-1.4
			c1.7-1.1,3.4-2.4,5.3-3.9l3.3,8.4c-2.4,1.7-4.7,3.2-7,4.6c-1,0.6-2.1,1.1-3.1,1.7c-1.1,0.5-2.2,1-3.3,1.5c-1.1,0.4-2.2,0.8-3.2,1
			C238.6,76.7,237.7,76.8,236.7,76.8z M236.8,44.8c1.2-2.1,2.5-4.5,3.8-7.2c1.3-2.7,2.6-5.4,3.8-8.2c1.2-2.8,2.2-5.6,3.1-8.5
			c0.9-2.8,1.4-5.4,1.7-7.9c0-0.8,0-1.4-0.1-2c0-0.5-0.2-0.8-0.4-0.8c-0.8,0-1.6,0.5-2.5,1.5c-0.9,1-1.8,2.4-2.7,4.1
			c-0.9,1.7-1.7,3.7-2.6,6c-0.8,2.3-1.5,4.7-2.2,7.2c-0.6,2.6-1.1,5.2-1.5,7.9C237,39.6,236.8,42.3,236.8,44.8z"/>
		<path class="st0" d="M260.6,76.8c-1.4,0-2.8-0.6-4-1.9c-1.2-1.3-2.3-3-3.2-5.1c-0.9-2.1-1.6-4.6-2.2-7.4c-0.5-2.8-0.8-5.8-0.8-8.9
			c0-2.4,0.2-5,0.5-7.7c0.3-2.8,0.9-5.7,1.5-8.6c0.7-3,1.5-5.9,2.4-8.9c0.9-3,2-5.9,3.1-8.6c1.2-2.7,2.4-5.3,3.8-7.7
			c1.4-2.4,2.8-4.5,4.3-6.2c1.5-1.8,3.1-3.2,4.7-4.2c1.6-1,3.3-1.5,5-1.5c1.1,0,2.1,0.3,2.8,0.8c0.7,0.5,1.3,1.2,1.8,2.1
			c0.4,0.9,0.7,1.8,0.9,2.9c0.2,1.1,0.3,2.2,0.3,3.3c0,2.5-0.3,5.1-0.9,7.7c-0.6,2.6-1.3,5.2-2.3,7.8c-1,2.6-2.1,5.3-3.4,7.9
			c-1.3,2.6-2.6,5.3-4,7.9c-1.4,2.6-2.8,5.2-4.2,7.7c-1.4,2.5-2.7,5-3.9,7.4c-0.1,0.3-0.3,0.6-0.4,1c-0.1,0.4-0.3,0.9-0.4,1.4
			c-0.1,0.5-0.3,1-0.4,1.6c-0.1,0.6-0.2,1.1-0.3,1.6v0.6c0,0.7,0.1,1.4,0.2,2c0.1,0.7,0.3,1.2,0.5,1.8c0.2,0.5,0.4,0.9,0.7,1.2
			c0.2,0.3,0.5,0.5,0.7,0.5c0.5,0,1.1-0.1,1.7-0.3c0.7-0.2,1.3-0.5,2.1-0.9c0.7-0.4,1.5-0.8,2.3-1.2c0.8-0.5,1.5-0.9,2.2-1.4
			c1.7-1.1,3.4-2.4,5.3-3.9l3.3,8.4c-2.4,1.7-4.7,3.2-7,4.6c-1,0.6-2.1,1.1-3.1,1.7c-1.1,0.5-2.2,1-3.3,1.5c-1.1,0.4-2.2,0.8-3.2,1
			C262.5,76.7,261.5,76.8,260.6,76.8z M260.6,44.8c1.2-2.1,2.5-4.5,3.8-7.2c1.3-2.7,2.6-5.4,3.8-8.2c1.2-2.8,2.2-5.6,3.1-8.5
			c0.9-2.8,1.4-5.4,1.7-7.9c0-0.8,0-1.4-0.1-2c0-0.5-0.2-0.8-0.4-0.8c-0.8,0-1.6,0.5-2.5,1.5c-0.9,1-1.8,2.4-2.7,4.1s-1.7,3.7-2.6,6
			c-0.8,2.3-1.5,4.7-2.2,7.2c-0.6,2.6-1.1,5.2-1.5,7.9C260.8,39.6,260.6,42.3,260.6,44.8z"/>
		<path class="st0" d="M289,76.8c-2.5,0-4.7-0.5-6.6-1.4c-1.9-0.9-3.4-2.1-4.7-3.7c-1.3-1.5-2.2-3.3-2.8-5.3c-0.6-2-0.9-4.1-0.9-6.3
			c0-1.5,0.1-3.1,0.4-4.7c0.3-1.7,0.7-3.3,1.3-4.9c0.6-1.6,1.4-3.1,2.3-4.6c0.9-1.5,2-2.7,3.2-3.8c1.2-1.1,2.6-2,4.1-2.6
			c1.5-0.7,3.2-1,5-1c1.5,0,2.9,0.2,4.2,0.7c1.3,0.5,2.4,1.2,3.3,2c0.9,0.9,1.7,1.9,2.2,3.1c0.5,1.2,0.8,2.6,0.8,4.1
			c0,1.7-0.4,3.3-1.2,5c-0.8,1.7-1.9,3.2-3.4,4.7c-1.4,1.5-3.2,2.8-5.1,3.9c-2,1.1-4.1,2-6.5,2.7c0.4,0.7,0.8,1.3,1.2,1.8
			c0.4,0.5,0.8,0.9,1.2,1.1c0.4,0.3,0.8,0.5,1.3,0.6c0.4,0.1,0.9,0.2,1.4,0.2c1.6,0,3.3-0.3,5.1-1c1.8-0.6,3.5-1.4,5.2-2.4
			c1.7-1,3.3-2,4.8-3.1c1.5-1.1,2.8-2.2,3.8-3.2l5.2,5.4c-2.3,2.4-4.8,4.6-7.5,6.4c-1.1,0.8-2.4,1.6-3.7,2.4
			c-1.3,0.8-2.7,1.5-4.2,2.1c-1.5,0.6-3,1.1-4.5,1.4S290.6,76.8,289,76.8z M283.7,58c1,0,2-0.2,3.1-0.7c1.1-0.5,2.2-1.1,3.2-1.9
			c1-0.8,1.8-1.6,2.5-2.5c0.7-0.9,1-1.8,1-2.6c0-1.2-0.2-2.2-0.7-3c-0.4-0.8-1-1.2-1.6-1.2c-1.1,0-2.1,0.2-2.9,0.6s-1.5,1-2,1.7
			c-0.5,0.7-1,1.5-1.3,2.3c-0.3,0.9-0.6,1.7-0.8,2.6s-0.3,1.7-0.3,2.6C283.7,56.7,283.7,57.4,283.7,58z"/>
		<path class="st0" d="M337.7,41c0,0.7-0.1,1.7-0.2,2.9c-0.2,1.2-0.4,2.6-0.6,4.1c-0.3,1.5-0.5,3-0.8,4.6c-0.3,1.6-0.6,3-0.8,4.4
			c-0.3,1.4-0.5,2.6-0.6,3.6c-0.2,1-0.2,1.7-0.2,2.1c0,0.7,0,1.4,0,2.1c0,0.6,0.1,1.2,0.2,1.6c0.1,0.5,0.3,0.8,0.6,1.1
			c0.3,0.3,0.7,0.4,1.2,0.4c0.6,0,1.3-0.1,2.1-0.4c0.8-0.3,1.7-0.7,2.7-1.2c0.9-0.5,1.9-1.1,2.9-1.7c1-0.6,1.9-1.3,2.8-2
			c0.9-0.7,1.7-1.4,2.4-2.1c0.7-0.7,1.3-1.3,1.8-1.9c0,0.9,0,1.7,0,2.4c0,0.7,0,1.4,0,2.1s0,1.3,0,2c0,0.7,0,1.5,0,2.3
			c-0.6,0.6-1.3,1.2-2.2,1.9c-0.9,0.7-1.8,1.3-2.9,2c-1.1,0.7-2.2,1.3-3.4,1.9c-1.2,0.6-2.4,1.2-3.6,1.6c-1.2,0.5-2.4,0.8-3.6,1.1
			c-1.2,0.3-2.3,0.4-3.3,0.4c-1,0-1.9-0.2-2.6-0.6c-0.7-0.4-1.3-1-1.9-1.7c-0.5-0.7-1-1.6-1.3-2.6c-0.4-1-0.7-2.1-0.9-3.3
			c-1,1.3-2,2.4-3,3.5c-1.1,1.1-2.2,2-3.3,2.7c-1.1,0.8-2.2,1.4-3.4,1.8s-2.2,0.7-3.3,0.7c-0.9,0-1.7-0.1-2.5-0.4
			c-0.8-0.3-1.5-0.8-2.1-1.5c-0.6-0.7-1.1-1.6-1.4-2.7c-0.3-1.1-0.5-2.5-0.5-4.2c0-2.1,0.2-4.7,0.7-7.8c0.5-3.2,1.1-6.8,1.8-10.9
			c0.1-0.4,0.2-0.9,0.3-1.6c0.1-0.7,0.3-1.4,0.6-2.2c0.3-0.8,0.6-1.6,0.9-2.4c0.4-0.8,0.8-1.6,1.3-2.2c0.5-0.7,1.1-1.2,1.8-1.6
			c0.7-0.4,1.4-0.7,2.3-0.7c1.4,0.1,2.4,0.2,3,0.5c0.6,0.3,0.9,0.7,0.9,1.1c-0.2,1.4-0.5,3-0.8,4.7c-0.3,1.7-0.6,3.5-0.9,5.2
			c-0.3,1.8-0.6,3.5-0.8,5.1c-0.3,1.7-0.5,3.2-0.7,4.5c-0.2,1.3-0.4,2.4-0.5,3.2c-0.1,0.8-0.2,1.2-0.2,1.2c0,0.5,0,0.9,0.1,1.4
			c0.1,0.4,0.2,0.8,0.4,1.2c0.2,0.3,0.4,0.6,0.7,0.8c0.3,0.2,0.6,0.3,1,0.3c0.6,0,1.2-0.2,1.8-0.5c0.6-0.3,1.2-0.7,1.7-1.3
			c0.5-0.6,1-1.3,1.5-2.1c0.4-0.8,0.7-1.8,1-2.9l4-20.3c0.1-0.6,0.7-1.2,1.6-1.6c0.9-0.4,2-0.7,3.2-0.7c1.4,0,2.4,0.2,3.2,0.7
			C337.3,39.7,337.7,40.3,337.7,41z"/>
		<path class="st0" d="M356,76.8c-1.4,0-2.8-0.6-4-1.9c-1.2-1.3-2.3-3-3.2-5.1c-0.9-2.1-1.6-4.6-2.2-7.4c-0.5-2.8-0.8-5.8-0.8-8.9
			c0-2.4,0.2-5,0.5-7.7c0.3-2.8,0.9-5.7,1.5-8.6c0.7-3,1.5-5.9,2.4-8.9c0.9-3,2-5.9,3.1-8.6c1.2-2.7,2.4-5.3,3.8-7.7
			c1.4-2.4,2.8-4.5,4.3-6.2c1.5-1.8,3.1-3.2,4.7-4.2c1.6-1,3.3-1.5,5-1.5c1.1,0,2.1,0.3,2.8,0.8c0.7,0.5,1.3,1.2,1.8,2.1
			c0.4,0.9,0.7,1.8,0.9,2.9s0.3,2.2,0.3,3.3c0,2.5-0.3,5.1-0.9,7.7c-0.6,2.6-1.3,5.2-2.3,7.8c-1,2.6-2.1,5.3-3.4,7.9
			c-1.3,2.6-2.6,5.3-4,7.9c-1.4,2.6-2.8,5.2-4.2,7.7c-1.4,2.5-2.7,5-3.9,7.4c-0.1,0.3-0.3,0.6-0.4,1c-0.1,0.4-0.3,0.9-0.4,1.4
			c-0.1,0.5-0.3,1-0.4,1.6c-0.1,0.6-0.2,1.1-0.3,1.6v0.6c0,0.7,0.1,1.4,0.2,2c0.1,0.7,0.3,1.2,0.5,1.8c0.2,0.5,0.4,0.9,0.7,1.2
			c0.2,0.3,0.5,0.5,0.7,0.5c0.5,0,1.1-0.1,1.7-0.3c0.7-0.2,1.3-0.5,2.1-0.9c0.7-0.4,1.5-0.8,2.3-1.2c0.8-0.5,1.5-0.9,2.2-1.4
			c1.7-1.1,3.4-2.4,5.3-3.9l3.3,8.4c-2.4,1.7-4.7,3.2-7,4.6c-1,0.6-2.1,1.1-3.1,1.7c-1.1,0.5-2.2,1-3.3,1.5c-1.1,0.4-2.2,0.8-3.2,1
			C357.9,76.7,356.9,76.8,356,76.8z M356.1,44.8c1.2-2.1,2.5-4.5,3.8-7.2c1.3-2.7,2.6-5.4,3.8-8.2c1.2-2.8,2.2-5.6,3.1-8.5
			c0.9-2.8,1.4-5.4,1.7-7.9c0-0.8,0-1.4-0.1-2c0-0.5-0.2-0.8-0.4-0.8c-0.8,0-1.6,0.5-2.5,1.5c-0.9,1-1.8,2.4-2.7,4.1s-1.7,3.7-2.6,6
			c-0.8,2.3-1.5,4.7-2.2,7.2s-1.1,5.2-1.5,7.9C356.3,39.6,356.1,42.3,356.1,44.8z"/>
		<path class="st0" d="M369.6,61.5c1.5-1.3,2.7-2.3,3.6-3.2c0.9-0.9,1.7-1.6,2.4-2.3c0.7-0.7,1.3-1.4,1.8-2.1
			c0.5-0.7,1.2-1.6,1.9-2.6c0.7-1,1.7-2.2,2.7-3.6c1.1-1.4,2.5-3.2,4.2-5.3c0.3-0.5,0.7-0.9,1.2-1.4c0.4-0.5,0.9-0.9,1.4-1.2
			c0.5-0.4,1.1-0.7,1.7-0.9c0.6-0.2,1.3-0.3,2.1-0.3c1.3,0,2.3,0.1,3,0.4c0.7,0.3,1.2,0.6,1.5,1c0.3,0.4,0.5,0.8,0.6,1.3
			c0.1,0.4,0.1,0.8,0.1,1.1c0,0.6-0.3,1.3-0.8,2.1c-0.5,0.8-1.1,1.5-1.7,2.2c-0.6,0.7-1.2,1.4-1.7,2c-0.5,0.6-0.9,1-0.9,1.3
			c0,0.8,0.1,1.6,0.2,2.3c0.1,0.7,0.3,1.3,0.5,2c0.2,0.7,0.4,1.3,0.6,2.1c0.2,0.7,0.4,1.6,0.6,2.5c0.2,1,0.4,2.1,0.5,3.3
			c0.1,1.3,0.2,2.7,0.2,4.4c1-0.6,2-1.2,3.1-1.7c1.1-0.5,2.3-1.1,3.5-1.6c1.2-0.6,2.4-1.2,3.7-1.9c1.3-0.7,2.5-1.5,3.8-2.5l0,9
			c-1.7,1.3-3.6,2.5-5.7,3.6c-2.2,1.1-4.5,2.1-6.8,3c-2.4,0.9-4.8,1.5-7.2,2c-2.4,0.5-4.8,0.7-6.9,0.7c-1.6,0-3-0.1-4.4-0.4
			c-1.4-0.3-2.6-0.8-3.6-1.4c-1-0.6-1.9-1.4-2.5-2.5c-0.6-1-1-2.2-1.2-3.7c-0.4,0.1-0.7,0.1-1.1,0.2c-0.4,0-0.7,0-1.1,0
			c-0.4,0-0.8,0-1.2,0c-0.4,0-0.7-0.1-1-0.3c-0.3-0.2-0.5-0.5-0.6-0.8c-0.2-0.4-0.2-0.9-0.2-1.7c0-0.6,0.2-1.2,0.5-1.8
			c0.3-0.5,0.7-1,1.1-1.5c0.4-0.4,0.9-0.8,1.3-1.1C369.1,61.9,369.4,61.6,369.6,61.5z M374.8,66.6c0.3,0,0.7,0.2,1.1,0.6
			c0.4,0.4,0.8,0.8,1.3,1.3c0.5,0.5,1.1,0.9,1.8,1.3c0.7,0.4,1.4,0.6,2.3,0.6c1,0,1.9-0.2,2.6-0.5c0.7-0.3,1.2-0.8,1.6-1.4
			c0.4-0.6,0.7-1.2,0.8-2c0.2-0.8,0.2-1.6,0.2-2.4c0-0.7,0-1.5-0.1-2.2c-0.1-0.7-0.2-1.5-0.4-2.1c-0.1-0.7-0.3-1.3-0.5-1.9
			c-0.2-0.6-0.3-1.1-0.5-1.5L374.8,66.6z"/>
		<path class="st0" d="M428.1,69.2c0,0.1,0,0.4,0,0.8c0,0.4-0.1,0.9-0.3,1.5c-0.1,0.6-0.4,1.2-0.7,1.8c-0.3,0.6-0.7,1.2-1.3,1.7
			c-0.6,0.5-1.3,1-2.1,1.3c-0.9,0.3-1.9,0.5-3.1,0.5c-1,0-1.9-0.1-2.7-0.4c-0.8-0.3-1.5-0.6-2.1-1.2c-0.6-0.5-1-1.2-1.3-2
			c-0.3-0.8-0.5-1.8-0.5-2.9c0-1,0.1-1.9,0.4-2.8c0.3-0.9,0.7-1.7,1.3-2.5c0.6-0.7,1.3-1.3,2.3-1.7c0.9-0.4,2-0.6,3.3-0.6
			c2.2,0,3.9,0.6,5,1.7C427.5,65.5,428.1,67.1,428.1,69.2z"/>
		<path class="st0" d="M447.7,76.8c-2.5,0-4.6-0.5-6.5-1.4c-1.9-0.9-3.4-2.1-4.7-3.6c-1.3-1.5-2.2-3.3-2.8-5.3c-0.6-2-1-4.1-1-6.2
			c0-1.5,0.2-3.2,0.5-4.8c0.3-1.7,0.8-3.3,1.4-4.9c0.6-1.6,1.4-3.2,2.3-4.6c0.9-1.5,2-2.8,3.2-3.9c1.2-1.1,2.6-2,4.1-2.6
			c1.5-0.7,3.1-1,4.9-1c1.5,0,2.9,0.2,4.2,0.7c1.3,0.5,2.4,1.1,3.3,1.9c0.9,0.8,1.6,1.8,2.2,2.9c0.5,1.1,0.8,2.4,0.8,3.7
			c0,0.9-0.1,1.8-0.4,2.7c-0.2,0.9-0.6,1.7-1.1,2.4c-0.5,0.7-1,1.3-1.7,1.7c-0.7,0.4-1.4,0.6-2.2,0.6c-1.3,0-2.1-0.3-2.5-1
			c-0.4-0.7-0.6-1.6-0.6-2.8c0-0.5,0-1,0.1-1.5c0-0.5,0.1-1,0.1-1.4c0-0.6-0.1-1.2-0.2-1.6c-0.1-0.4-0.4-0.6-0.9-0.6
			c-1.1,0-2,0.3-2.8,0.8c-0.8,0.5-1.4,1.2-2,2c-0.5,0.8-1,1.8-1.3,2.8c-0.3,1.1-0.6,2.1-0.8,3.1c-0.2,1-0.3,2-0.4,3
			c-0.1,0.9-0.1,1.7-0.1,2.4c0,1,0.1,2,0.3,3c0.2,1,0.5,2,1,2.9c0.5,0.9,1.1,1.6,2,2.2c0.8,0.6,1.9,0.9,3.2,0.9
			c1.3,0,2.7-0.4,4.2-1.2c1.5-0.8,3.1-1.8,4.7-3c1.6-1.2,3-2.5,4.5-4c1.4-1.4,2.6-2.8,3.6-4.1l2.8,4.6c-2,2.9-4.2,5.4-6.5,7.6
			c-1,1-2.1,1.9-3.2,2.8c-1.2,0.9-2.4,1.7-3.6,2.4c-1.3,0.7-2.6,1.3-4,1.7C450.5,76.6,449.1,76.8,447.7,76.8z"/>
		<path class="st0" d="M490.2,46.9c0.8,1.5,1.4,3.2,1.7,4.9c0.4,1.7,0.6,3.4,0.6,4.9c0,1.6-0.2,3.2-0.5,4.8
			c-0.3,1.6-0.8,3.1-1.5,4.6c-0.7,1.5-1.5,2.9-2.4,4.2c-0.9,1.3-2,2.4-3.2,3.4c-1.2,1-2.5,1.7-4,2.3c-1.4,0.6-3,0.8-4.6,0.8
			c-2.3,0-4.4-0.5-6-1.5c-1.7-1-3-2.4-4.1-4c-1.1-1.7-1.8-3.5-2.3-5.6c-0.5-2.1-0.7-4.2-0.7-6.3c0-2.9,0.4-5.7,1.3-8.2
			c0.9-2.5,2.1-4.8,3.8-6.6c1.6-1.9,3.6-3.4,6-4.4c2.4-1.1,5-1.6,8-1.6c2.5,0,4.9,0.4,7.1,1.2s4.3,1.8,6.2,3.2
			c1.9,1.3,3.7,2.8,5.4,4.5c1.7,1.7,3.2,3.5,4.7,5.3l-0.8,5.6c-0.7-1-1.7-2-2.9-3.1c-1.2-1.1-2.5-2.2-3.9-3.3
			c-1.4-1.1-2.7-2.1-4.1-3c-1.3-0.9-2.5-1.7-3.4-2.4L490.2,46.9z M477.8,69.1c0.9,0,1.8-0.5,2.6-1.4c0.9-0.9,1.6-2.1,2.2-3.5
			c0.6-1.4,1.2-2.9,1.5-4.6c0.4-1.7,0.6-3.3,0.6-4.9c0-1.2-0.1-2.4-0.3-3.4c-0.2-1.1-0.5-2-0.8-2.7c-0.4-0.8-0.9-1.4-1.4-1.8
			c-0.6-0.5-1.3-0.7-2.1-0.7c-1.1,0-2.1,0.5-3.1,1.4c-1,0.9-1.9,2.1-2.6,3.6c-0.7,1.5-1.3,3.1-1.8,4.8c-0.4,1.8-0.6,3.5-0.6,5.1
			c0,1.1,0.1,2.2,0.3,3.2c0.2,1,0.5,1.8,1,2.6c0.5,0.7,1.1,1.3,1.8,1.8C475.9,68.9,476.8,69.1,477.8,69.1z"/>
		<path class="st0" d="M525.9,46.9c0.8,1.5,1.4,3.2,1.7,4.9c0.4,1.7,0.6,3.4,0.6,4.9c0,1.6-0.2,3.2-0.5,4.8
			c-0.3,1.6-0.8,3.1-1.5,4.6c-0.7,1.5-1.5,2.9-2.4,4.2c-0.9,1.3-2,2.4-3.2,3.4c-1.2,1-2.5,1.7-4,2.3c-1.4,0.6-3,0.8-4.6,0.8
			c-2.3,0-4.4-0.5-6-1.5c-1.7-1-3-2.4-4.1-4c-1.1-1.7-1.8-3.5-2.3-5.6c-0.5-2.1-0.7-4.2-0.7-6.3c0-2.9,0.4-5.7,1.3-8.2
			c0.9-2.5,2.1-4.8,3.8-6.6c1.6-1.9,3.6-3.4,6-4.4c2.4-1.1,5-1.6,8-1.6c2.5,0,4.9,0.4,7.1,1.2c2.2,0.8,4.3,1.8,6.2,3.2
			c1.9,1.3,3.7,2.8,5.4,4.5s3.2,3.5,4.7,5.3l-0.8,5.6c-0.7-1-1.7-2-2.9-3.1c-1.2-1.1-2.5-2.2-3.9-3.3c-1.4-1.1-2.7-2.1-4.1-3
			c-1.3-0.9-2.5-1.7-3.4-2.4L525.9,46.9z M513.6,69.1c0.9,0,1.8-0.5,2.6-1.4c0.9-0.9,1.6-2.1,2.2-3.5c0.6-1.4,1.2-2.9,1.5-4.6
			c0.4-1.7,0.6-3.3,0.6-4.9c0-1.2-0.1-2.4-0.3-3.4s-0.5-2-0.8-2.7c-0.4-0.8-0.9-1.4-1.4-1.8c-0.6-0.5-1.3-0.7-2.1-0.7
			c-1.1,0-2.1,0.5-3.1,1.4c-1,0.9-1.9,2.1-2.6,3.6c-0.7,1.5-1.3,3.1-1.8,4.8c-0.4,1.8-0.6,3.5-0.6,5.1c0,1.1,0.1,2.2,0.3,3.2
			c0.2,1,0.5,1.8,1,2.6c0.5,0.7,1.1,1.3,1.8,1.8C511.6,68.9,512.5,69.1,513.6,69.1z"/>
		<path class="st0" d="M553.4,69.7c2.7,0,5.1-0.3,7.4-0.8c2.2-0.5,4.2-1.3,6-2.2c1.8-0.9,3.4-2,4.9-3.2c1.5-1.2,2.8-2.5,3.9-3.9
			l0.4,9.2c-0.9,1-1.9,2-3.1,3c-1.2,1-2.5,1.8-4,2.6c-1.4,0.7-3,1.3-4.5,1.8c-1.6,0.4-3.2,0.7-4.7,0.7c-0.2,0-0.4,0-0.7-0.1
			c-0.3-0.1-0.8-0.1-1.5-0.3c-0.7-0.1-1.7-0.3-3-0.5s-3-0.5-5.3-0.8v0.7c0,4.9-0.4,9.3-1.2,13.2c-0.8,4-1.9,7.3-3.3,10.1
			c-1.4,2.8-2.9,5-4.7,6.5c-1.8,1.5-3.6,2.3-5.5,2.3c-1.5,0-2.8-0.4-3.8-1.1c-1-0.7-1.8-1.8-2.4-3c-0.6-1.3-1-2.7-1.3-4.4
			c-0.3-1.7-0.4-3.5-0.4-5.4c0-1.1,0.2-2.3,0.5-3.7c0.3-1.4,0.8-2.8,1.4-4.3c0.6-1.5,1.2-3,2-4.6c0.7-1.6,1.5-3.1,2.3-4.5
			c1.8-3.4,3.9-6.9,6.2-10.6c0.3-2.1,0.6-4.2,0.9-6.4c0.3-2.2,0.7-4.3,1.2-6.4c0.5-2.1,1.1-4,1.8-5.8c0.7-1.8,1.6-3.4,2.7-4.8
			c1.1-1.4,2.4-2.4,4-3.2c1.5-0.8,3.4-1.2,5.6-1.2c1.6,0,3.1,0.2,4.6,0.7c1.4,0.4,2.7,1.2,3.7,2.1c1.1,1,1.9,2.3,2.5,3.8
			c0.6,1.6,0.9,3.5,0.9,5.7c0,1.8-0.3,3.6-0.8,5.3c-0.5,1.7-1.4,3.3-2.5,4.9c-1.1,1.5-2.6,3-4.3,4.3c-1.7,1.3-3.8,2.6-6.2,3.6
			L553.4,69.7z M534.5,94.5c0,0.2,0,0.6,0.1,1c0.1,0.5,0.2,1,0.5,1.4c0.2,0.5,0.5,0.9,0.8,1.3c0.3,0.4,0.8,0.6,1.3,0.6
			c0.5,0,0.8-0.2,1.1-0.7c0.3-0.5,0.5-1.2,0.7-2c0.2-0.8,0.3-1.8,0.4-2.8c0.1-1,0.1-2.1,0.2-3.2c0.1-1.1,0.1-2.2,0.1-3.2
			s0-2,0.1-2.8c0.1-1.4,0.1-2.7,0.2-3.7c0-1,0.1-1.8,0.1-2.5c0-0.7,0.1-1.4,0.1-1.9c-0.5,0.9-1,1.9-1.5,3.1
			c-0.5,1.2-0.9,2.4-1.4,3.6c-0.4,1.3-0.8,2.5-1.2,3.8c-0.3,1.3-0.6,2.4-0.9,3.5c-0.3,1.1-0.5,2-0.6,2.8
			C534.5,93.6,534.5,94.1,534.5,94.5z M548.4,65.7c1.6-0.8,3-1.7,4.1-2.7c1.2-1,2.2-2,3-3.2c0.8-1.1,1.5-2.3,2.1-3.5
			c0.5-1.2,1-2.4,1.3-3.7c0.1-0.6,0.2-1.3,0.3-2.1c0-0.8,0-1.5-0.2-2.2c-0.2-0.7-0.5-1.3-1-1.8c-0.5-0.5-1.2-0.7-2.1-0.7
			c-1,0-1.9,0.3-2.6,0.8c-0.7,0.5-1.4,1.3-1.9,2.2c-0.5,0.9-1,2-1.4,3.3c-0.4,1.3-0.7,2.7-0.9,4.1c-0.2,1.5-0.4,3-0.5,4.6
			C548.4,62.5,548.4,64.1,548.4,65.7z"/>
	</g>
	<g>
		<path class="st0" d="M150.6,59.5c0.3,0,0.6,0,0.9,0.1c0.3,0.1,0.7,0.2,0.9,0.3c0.3,0.2,0.5,0.4,0.7,0.7c0.2,0.3,0.3,0.7,0.3,1.2
			c0,0.4,0,0.8-0.1,1.2c-0.1,0.4-0.3,0.8-0.5,1.1c-0.3,0.3-0.7,0.6-1.2,0.8c-0.5,0.2-1.2,0.3-2,0.3h-12.5c-0.6,0-1.2-0.1-1.5-0.3
			c-0.4-0.2-0.7-0.5-0.9-0.8c-0.2-0.3-0.3-0.7-0.4-1.1c-0.1-0.4-0.1-0.7-0.1-1c0-0.3,0-0.5,0.1-0.8c0.1-0.3,0.2-0.6,0.4-0.8
			c0.2-0.2,0.5-0.5,0.9-0.6c0.4-0.2,0.9-0.2,1.5-0.2H150.6z"/>
	</g>
</g>
</svg>
