<?xml version="1.0" encoding="utf-8"?>
<!-- Generator: Adobe Illustrator 22.0.1, SVG Export Plug-In . SVG Version: 6.00 Build 0)  -->
<svg version="1.1" id="Calque_1" xmlns="http://www.w3.org/2000/svg" xmlns:xlink="http://www.w3.org/1999/xlink" x="0px" y="0px"
	 width="148px" height="147.6px" viewBox="0 0 148 147.6" style="enable-background:new 0 0 148 147.6;" xml:space="preserve">
<style type="text/css">
	.st0{fill:#2AB3D7;}
	.st1{fill:#76C8DD;}
</style>
<g>
	<path class="st0" d="M61.1,28.6c6,2.8,12.6,4.8,19,6.6c15.3,4.2,30.7,8.1,46,12.2c7.4,2,9.9,7.3,6.1,14
		c-13.6,24.7-27.4,49.3-41.1,73.9c-0.6,1-1.2,2-1.7,3.1c-1.5,3.3-0.5,6.7,2.5,8.3c3.1,1.7,6.3,0.9,8.2-2.4c4.4-7.8,8.7-15.7,13-23.5
		c9-16.5,18.1-32.9,27.1-49.4c1.9-3.5,3.9-6.9,5.7-10.5c4.7-9.1,1.1-20.3-8.7-23.2c-27.5-8-55.1-15.3-83.5-23
		C53.8,21.3,56.1,26.2,61.1,28.6z"/>
	<path class="st1" d="M48.4,84.7c2.8,2,6.1,3.7,9.4,4.6c14.9,4.2,30,8.1,45,12.2c2.2-3.9,4.3-7.6,6.8-11.9
		c-22.4-6-44.2-11.8-66.7-17.8C42.4,77.7,44.4,81.9,48.4,84.7z"/>
	<path class="st1" d="M75,52.6c2.4,1.4,5,2.5,7.7,3.2c12.2,3.4,24.4,6.5,36.6,9.9c2.4,0.7,3.7,0.4,4.9-1.9c4.8-9.4,6.9-9-4.8-12
		c-15.9-4.2-31.8-8.5-47.7-12.7c-1-0.3-1.9-0.4-3.5-0.8C67.9,44.8,69.9,49.6,75,52.6z"/>
	<path class="st1" d="M76.8,66.2c0.4-5.4-2.3-6.7-6.9-7.8c-12.4-3-24.7-6.5-37-9.8c-1.4-0.4-2.8-0.7-4.2-1c-0.5,7.8,2.2,13.1,9,15.8
		c5.9,2.4,12.2,4,18.4,5.8c7.4,2.1,14.9,4,22.8,6.1C78.1,71.9,76.6,69,76.8,66.2z"/>
	<path class="st1" d="M24.3,39.7c6.7,2.5,13.7,4.1,20.6,6.1c6.3,1.8,12.7,3.4,19.1,5.2c-0.6-4.4-1.1-8.7-1.9-12.9
		c-0.2-0.8-1.4-1.9-2.3-2.1c-15-4.1-30-8.1-45.3-12.2C14.1,31.9,16.9,36.9,24.3,39.7z"/>
	<path class="st0" d="M47.9,15.3c-0.2-1-1.1-2.3-1.9-2.5C30.8,8.5,15.6,4.3,0,0c-0.3,7.8,3.1,13,9.4,15.4c7.9,3.1,16.2,5.2,24.4,7.5
		c5.4,1.6,11,2.9,16.3,4.3C49.4,22.9,48.8,19.1,47.9,15.3z"/>
	<path class="st0" d="M83,62c-1.4,5.8,0.8,12.1,6.4,14.7c6.9,3.1,14.3,5,21.6,7.3c0.6,0.2,2-0.5,2.4-1.2c2.1-3.5,4-7.1,6.2-11.1
		C107,68.4,95,65.2,83,62z"/>
</g>
</svg>
