<svg id="Calque_1" data-name="Calque 1" xmlns="http://www.w3.org/2000/svg" xmlns:xlink="http://www.w3.org/1999/xlink" viewBox="0 0 1479.16 1157.07"><defs><style>.cls-1,.cls-2,.cls-20,.cls-22,.cls-38,.cls-39,.cls-40,.cls-41{fill:none;}.cls-2,.cls-20{stroke:#059dc1;}.cls-2{stroke-linecap:round;stroke-width:21px;}.cls-2,.cls-20,.cls-22,.cls-32,.cls-33,.cls-34,.cls-35,.cls-38,.cls-39,.cls-40,.cls-41{stroke-miterlimit:10;}.cls-3{fill:#a7d3db;}.cls-4{fill:#00394c;}.cls-5{fill:#059dc1;}.cls-10,.cls-26,.cls-35,.cls-6{fill:#005c79;}.cls-7{fill:#007ba3;}.cls-28,.cls-42,.cls-8{fill:#fff;}.cls-32,.cls-37,.cls-9{fill:#f7851f;}.cls-10{font-size:47.37px;font-family:BebasNeueBold, Bebas Neue;letter-spacing:-0.01em;}.cls-11{fill:#ba5a0c;}.cls-12{fill:#d8670b;}.cls-13{opacity:0.28;}.cls-14{clip-path:url(#clip-path);}.cls-15{opacity:0.2;}.cls-16{fill:#575757;}.cls-17{fill:#9c9c9c;}.cls-18{fill:#6b6b6b;}.cls-19{fill:#878787;}.cls-20{stroke-width:14px;}.cls-21,.cls-23,.cls-29{font-size:20px;}.cls-21,.cls-23{fill:#313333;}.cls-21,.cls-23,.cls-24,.cls-25,.cls-26,.cls-28,.cls-29,.cls-37{font-family:Consolas-Bold, Consolas;font-weight:700;}.cls-21{letter-spacing:-0.03em;}.cls-22{stroke:#f7851f;}.cls-22,.cls-38,.cls-39,.cls-40,.cls-41{stroke-width:3px;}.cls-23{letter-spacing:-0.03em;}.cls-24,.cls-25,.cls-26,.cls-37{font-size:33px;letter-spacing:-0.02em;}.cls-24,.cls-34,.cls-36{fill:#ff2f51;}.cls-25,.cls-30,.cls-33{fill:#00c5d6;}.cls-27{fill:#e5eaea;}.cls-28{font-size:32px;letter-spacing:-0.01em;}.cls-29{letter-spacing:-0.01em;}.cls-31{fill:#00c3cc;}.cls-32,.cls-33,.cls-34,.cls-35{stroke:#fff;stroke-width:6px;}.cls-38,.cls-39,.cls-40,.cls-41{stroke:#a7d3db;}.cls-39{stroke-dasharray:12 12;}.cls-40{stroke-dasharray:12.04 12.04;}.cls-41{stroke-dasharray:12;}.cls-42{font-size:68px;font-family:BebasNeue, Bebas Neue;}</style><clipPath id="clip-path"><polyline class="cls-1" points="1070.83 242.25 797.81 88.09 641.9 111.21 807.9 358.85 1048.87 344.06"/></clipPath></defs><path class="cls-2" d="M959.19,1118.43V398.49c-107.14,0-194-86.86-194-194s86.86-194,194-194,194,86.85,194,194"/><path class="cls-2" d="M1153.41,204.07a193.3,193.3,0,0,1-49.54,129.49"/><circle class="cls-3" cx="202.68" cy="205.58" r="158.89"/><circle class="cls-3" cx="960.77" cy="206.37" r="164.13"/><path class="cls-4" d="M179.13,325.05a11.62,11.62,0,0,0-10.51,0l-47.35,25.55c-2.9,1.68-2,5.64.91,7.32l19.61,11.32a11.65,11.65,0,0,0,10.51,0l46.43-26.81c2.9-1.67,3.49-6.52.59-8.19Z"/><path class="cls-4" d="M346.83,295l-51.09-26.46a5.09,5.09,0,0,0-4.61.19L204.25,316c-1.37.79-1,4.53.22,5.21l50.74,29.29a5.12,5.12,0,0,0,4.61-.19l86.32-49.84C347.51,299.72,348,295.7,346.83,295Z"/><path class="cls-5" d="M259.82,347.27a5.16,5.16,0,0,1-4.61.19l-50.74-29.29c-1.18-.69-1-1.88.33-2.67l86.33-49.84a5.15,5.15,0,0,1,4.61-.19l50.74,29.29c1.18.69,1,1.88-.34,2.67Z"/><polygon class="cls-6" points="262.94 340.8 216.01 313.7 292.14 269.74 339.08 296.84 262.94 340.8"/><path class="cls-4" d="M237.39,331.41a6.14,6.14,0,0,1-5.52.23c-1.42-.82-1.24-2.24.39-3.19a6.17,6.17,0,0,1,5.52-.23C239.2,329,239,330.47,237.39,331.41Z"/><polygon class="cls-4" points="339.08 296.84 293.09 270.29 293.13 270.27 292.14 269.74 216.01 313.7 216.99 314.23 291.43 271.25 337.44 297.82 339.08 296.84"/><path class="cls-5" d="M179.13,322.53a11.62,11.62,0,0,0-10.51,0l-46.43,26.8c-2.9,1.68-2.9,4.4,0,6.07l19.61,11.32a11.65,11.65,0,0,0,10.51,0l46.43-26.81c2.9-1.67,2.9-4.4,0-6.07Z"/><path class="cls-4" d="M129.89,357.31l8.54,4.93a2.69,2.69,0,0,0,2.44,0,.74.74,0,0,0,0-1.41l-8.53-4.93a2.71,2.71,0,0,0-2.45,0A.75.75,0,0,0,129.89,357.31Zm2.51,0a1.36,1.36,0,0,1,1.21,0l4.76,2.75a.37.37,0,0,1,0,.7,1.32,1.32,0,0,1-1.22,0l-4.75-2.74A.37.37,0,0,1,132.4,357.34Z"/><rect class="cls-4" x="181.69" y="329.21" width="7.55" height="1.26" rx="0.5" transform="translate(181.17 708.23) rotate(-150)"/><path class="cls-6" d="M171.62,324.93,193,337.78a1.71,1.71,0,0,1,0,3l-40.34,23a2.43,2.43,0,0,1-2.38,0L130,352.65a2.43,2.43,0,0,1-.08-4.21l39.18-23.51A2.46,2.46,0,0,1,171.62,324.93Z"/><path class="cls-4" d="M331.66,212.22l-8.73,4.55-87.54-50.54a6.37,6.37,0,0,0-5.72.24l-151,87.17c-1.45-.81-8-4-8-4l3.2,8.33h0a1.92,1.92,0,0,0,.9,1L167,312.2a6.35,6.35,0,0,0,5.71-.23l154.5-89.21a2.73,2.73,0,0,0,1.3-1.38h0Z"/><path class="cls-7" d="M330.31,213.65,172,305.07a6.54,6.54,0,0,1-5.86.25L71.61,250.76c-1.5-.87-1.31-2.38.42-3.38L230.38,156a6.54,6.54,0,0,1,5.86-.25l94.49,54.56C332.23,211.14,332,212.65,330.31,213.65Z"/><path class="cls-5" d="M96.25,245.65l131.58-76a2.83,2.83,0,0,1,2.84,0l46.86,27.11a1,1,0,0,1,0,1.75L146,274.48a2.86,2.86,0,0,1-2.83,0L96.25,247.4A1,1,0,0,1,96.25,245.65Z"/><polygon class="cls-8" points="234.21 176.55 119.9 242.54 114.82 239.6 229.12 173.61 234.21 176.55"/><polygon class="cls-8" points="246.66 183.74 139.46 245.64 134.37 242.7 241.58 180.81 246.66 183.74"/><polygon class="cls-8" points="254.78 188.43 128.55 261.3 123.47 258.37 249.7 185.49 254.78 188.43"/><polygon class="cls-8" points="262.9 193.11 136.67 265.99 131.59 263.06 257.81 190.18 262.9 193.11"/><polygon class="cls-8" points="271.01 197.8 144.78 270.67 139.7 267.74 265.93 194.86 271.01 197.8"/><polygon class="cls-8" points="113 246.53 107.92 249.46 102.83 246.53 107.92 243.59 113 246.53"/><polygon class="cls-8" points="130.92 250.56 120.38 256.65 115.29 253.72 125.84 247.63 130.92 250.56"/><path class="cls-5" d="M232.9,264l35.48-20.49c1.39-.8,1.39-2.1,0-2.9l-24.26-14a5.55,5.55,0,0,0-5,0l-35.48,20.49c-1.39.8-1.39,2.1,0,2.9l24.26,14A5.55,5.55,0,0,0,232.9,264Z"/><path class="cls-4" d="M64.62,134V239.89c0,5.09,1.41,5.91,5.84,8.39l.11-.14L231,33.21l-1.12-.51-.48-.22a7.54,7.54,0,0,0-.75-.38,10.72,10.72,0,0,0-1.73-.71,8,8,0,0,0-2.63-.32,7.89,7.89,0,0,0-2.92.73,11.69,11.69,0,0,0-1.28.63L73.15,116.91C67.88,120,64.62,127.94,64.62,134Z"/><path class="cls-5" d="M73.11,248.31l157.4-90.61a8.12,8.12,0,0,0,4.06-7V39.44c0-3.57-3.87-8.16-7-6.37L75.9,120.4c-4,2.32-6.5,8.95-6.5,13.59V246.17A2.47,2.47,0,0,0,73.11,248.31Z"/><path class="cls-6" d="M226.06,155.38a9.21,9.21,0,0,0,4.62-8V43.93a3.58,3.58,0,0,0-5.36-3.1L78.06,125.6a9.53,9.53,0,0,0-4.77,8.25V235.34a4.62,4.62,0,0,0,6.93,4Z"/><polygon class="cls-8" points="212.7 66.11 212.7 134.68 93.69 203.51 93.58 135.02 212.7 66.11"/><path class="cls-6" d="M115.41,129.82A5.3,5.3,0,0,1,113,134c-1.34.76-2.42.16-2.42-1.36a5.28,5.28,0,0,1,2.42-4.13C114.33,127.7,115.41,128.3,115.41,129.82Z"/><path class="cls-6" d="M108.5,133.77a5.31,5.31,0,0,1-2.42,4.14c-1.33.77-2.41.16-2.41-1.35a5.3,5.3,0,0,1,2.41-4.14C107.41,131.65,108.5,132.26,108.5,133.77Z"/><path class="cls-6" d="M101.58,137.73a5.28,5.28,0,0,1-2.42,4.13c-1.33.77-2.41.16-2.41-1.35a5.3,5.3,0,0,1,2.41-4.14C100.5,135.6,101.58,136.21,101.58,137.73Z"/><polygon class="cls-9" points="210.18 83.74 210.18 88.73 96.62 154.42 96.52 149.48 210.18 83.74"/><polygon class="cls-9" points="185.47 340.37 180.92 337.61 175.84 340.6 180.4 343.36 185.47 340.37"/><polygon class="cls-8" points="178.85 336.36 174.3 333.6 169.22 336.59 173.78 339.35 178.85 336.36"/><polygon class="cls-8" points="172.23 332.35 167.67 329.59 162.6 332.58 167.15 335.34 172.23 332.35"/><polygon class="cls-8" points="178.26 344.61 173.7 341.86 168.63 344.84 173.18 347.6 178.26 344.61"/><polygon class="cls-8" points="171.63 340.6 167.08 337.85 162.01 340.83 166.56 343.59 171.63 340.6"/><polygon class="cls-8" points="165.01 336.59 160.46 333.84 155.38 336.82 159.94 339.58 165.01 336.59"/><polygon class="cls-8" points="171.04 348.86 166.49 346.1 161.41 349.09 165.97 351.84 171.04 348.86"/><polygon class="cls-8" points="163.83 353.1 159.27 350.35 154.2 353.33 158.75 356.09 163.83 353.1"/><polygon class="cls-8" points="150.58 345.08 146.03 342.33 140.95 345.31 145.51 348.07 150.58 345.08"/><polygon class="cls-9" points="164.42 344.85 159.87 342.09 154.79 345.08 159.34 347.83 164.42 344.85"/><polygon class="cls-8" points="157.8 340.84 153.24 338.08 148.17 341.07 152.72 343.82 157.8 340.84"/><polygon class="cls-9" points="260.91 291.26 300.93 314.86 322.13 302.52 282.11 278.91 260.91 291.26"/><polygon class="cls-8" points="257.45 293.27 297.48 316.88 298.57 316.24 258.55 292.63 257.45 293.27"/><polygon class="cls-8" points="254.47 295 294.49 318.61 295.59 317.97 255.57 294.37 254.47 295"/><polygon class="cls-8" points="251.49 296.74 291.51 320.35 292.61 319.71 252.59 296.1 251.49 296.74"/><polygon class="cls-8" points="285.48 276.6 325.5 300.21 329.12 298.31 289.09 274.7 285.48 276.6"/><polygon class="cls-8" points="258.48 330.3 253.93 327.54 248.86 330.53 253.41 333.28 258.48 330.3"/><polygon class="cls-9" points="249.34 325.03 244.79 322.27 239.72 325.26 244.27 328.01 249.34 325.03"/><polygon class="cls-8" points="240.2 319.76 235.65 317 230.58 319.99 235.13 322.75 240.2 319.76"/><text class="cls-10" transform="matrix(0.86, -0.51, 0, 0.79, 100.23, 188.75)">CLIENT</text><path class="cls-6" d="M985.19,152.89h14c-2.08-4.71-3.37-7.61-3.37-7.61L856.34,90.85V267.21s0,.05,0,.07v.22h0a1.54,1.54,0,0,0,.85,1.12l127.18,73.43a3.8,3.8,0,0,0,.8.31Z"/><path class="cls-5" d="M985.19,342.36l1.63.18h0a5.61,5.61,0,0,0,2.58-.7l76.46-44.14a2.1,2.1,0,0,0,1.21-1.58h0V119.56l-81.89,46.38.18,83"/><path class="cls-7" d="M982.73,165.63,857.44,91.91c-1.28-.75-1.12-2,.37-2.9l76.55-44a5.61,5.61,0,0,1,5-.2l127,73.72c1.28.75,1.12,2-.37,2.9l-78.27,44A5.61,5.61,0,0,1,982.73,165.63Z"/><polygon class="cls-11" points="937.77 52.72 876.66 88 870.74 86.89 870.74 91.42 985.65 157.76 1043.84 118.21 937.77 52.72"/><polygon class="cls-12" points="1052.68 114.54 1052.68 119.06 985.65 157.76 985.65 153.24 1052.68 114.54"/><polygon class="cls-9" points="985.65 153.24 870.74 86.89 937.77 48.19 1052.68 114.54 985.65 153.24"/><polygon class="cls-6" points="913.63 82.06 911.8 81 911.95 80.14 928.94 70.26 931.29 71.38 930.85 72.11 913.63 82.06"/><polygon class="cls-6" points="929.03 71.06 930.85 72.11 932.03 71.43 929.03 69.7 910.63 80.32 911.81 81 929.03 71.06"/><polygon class="cls-6" points="919.19 85.25 917.36 84.2 917.51 83.34 934.49 73.46 936.85 74.58 936.41 75.31 919.19 85.25"/><polygon class="cls-6" points="934.58 74.26 936.41 75.31 937.59 74.63 934.58 72.9 916.18 83.52 917.36 84.2 934.58 74.26"/><polygon class="cls-6" points="924.75 88.45 922.92 87.4 923.07 86.54 940.05 76.66 942.41 77.78 941.97 78.51 924.75 88.45"/><polygon class="cls-6" points="940.14 77.46 941.97 78.51 943.15 77.83 940.14 76.09 921.74 86.72 922.92 87.4 940.14 77.46"/><polygon class="cls-6" points="930.3 91.65 928.47 90.59 928.62 89.74 945.61 79.85 947.97 80.98 947.52 81.71 930.3 91.65"/><polygon class="cls-6" points="945.7 80.65 947.52 81.71 948.7 81.03 945.7 79.29 927.3 89.92 928.48 90.6 945.7 80.65"/><polygon class="cls-6" points="946.55 101.09 944.72 100.04 944.88 99.18 961.86 89.3 964.22 90.42 963.77 91.15 946.55 101.09"/><polygon class="cls-6" points="961.95 90.1 963.77 91.15 964.96 90.47 961.95 88.73 943.55 99.36 944.73 100.04 961.95 90.1"/><polygon class="cls-6" points="952.11 104.29 950.28 103.23 950.43 102.38 967.41 92.49 969.77 93.62 969.33 94.35 952.11 104.29"/><polygon class="cls-6" points="967.5 93.29 969.33 94.35 970.51 93.67 967.5 91.93 949.1 102.56 950.28 103.24 967.5 93.29"/><polygon class="cls-6" points="957.67 107.49 955.84 106.43 955.99 105.58 972.97 95.69 975.33 96.82 974.89 97.55 957.67 107.49"/><polygon class="cls-6" points="973.06 96.49 974.89 97.55 976.07 96.87 973.06 95.13 954.66 105.75 955.84 106.44 973.06 96.49"/><polygon class="cls-6" points="963.23 110.69 961.39 109.63 961.54 108.77 978.53 98.89 980.89 100.01 980.45 100.75 963.23 110.69"/><polygon class="cls-6" points="978.62 99.69 980.45 100.75 981.63 100.06 978.62 98.33 960.22 108.95 961.4 109.63 978.62 99.69"/><polygon class="cls-6" points="979.48 120.13 977.64 119.07 977.8 118.22 994.78 108.33 997.14 109.46 996.7 110.19 979.48 120.13"/><polygon class="cls-6" points="994.87 109.13 996.7 110.19 997.88 109.51 994.87 107.77 976.47 118.39 977.65 119.07 994.87 109.13"/><polygon class="cls-6" points="985.03 123.33 983.2 122.27 983.35 121.41 1000.34 111.53 1002.69 112.65 1002.25 113.39 985.03 123.33"/><polygon class="cls-6" points="1000.42 112.33 1002.25 113.39 1003.43 112.7 1000.42 110.97 982.02 121.59 983.21 122.27 1000.42 112.33"/><polygon class="cls-6" points="990.59 126.53 988.76 125.47 988.91 124.61 1005.89 114.73 1008.25 115.85 1007.81 116.58 990.59 126.53"/><polygon class="cls-6" points="1005.98 115.53 1007.81 116.58 1008.99 115.9 1005.98 114.17 987.58 124.79 988.76 125.47 1005.98 115.53"/><polygon class="cls-6" points="996.15 129.72 994.32 128.67 994.47 127.81 1011.45 117.93 1013.81 119.05 1013.37 119.78 996.15 129.72"/><polygon class="cls-6" points="1011.54 118.73 1013.37 119.78 1014.55 119.1 1011.54 117.36 993.14 127.99 994.32 128.67 1011.54 118.73"/><path class="cls-6" d="M1001,250.87a2.13,2.13,0,0,1-1.07-1.86V176.79a4.6,4.6,0,0,1,2.3-4l52.17-30.13a2.17,2.17,0,0,1,2.15,0,2.14,2.14,0,0,1,1.07,1.86v72.22a4.62,4.62,0,0,1-2.3,4l-52.18,30.12a2.15,2.15,0,0,1-1.07.29A2.18,2.18,0,0,1,1001,250.87Zm54-107.13-52.17,30.13a3.39,3.39,0,0,0-1.69,2.92V249a.92.92,0,0,0,1.38.8l52.18-30.12a3.4,3.4,0,0,0,1.69-2.93V144.54a.92.92,0,0,0-.46-.8,1,1,0,0,0-.46-.12A1,1,0,0,0,1055,143.74Z"/><g class="cls-13"><g class="cls-14"><path class="cls-15" d="M663.26,327.68c-31.36,18.1-30.51,18.1-61.87,0s-31.35-47.45,0-65.55,30.51-18.1,61.87,0S694.61,309.58,663.26,327.68Z"/><path class="cls-16" d="M629.9,263.61c-11-10.06,16-10.19,4.93-.26-5.57,5-5.61,11.66-.08,16.72a21.51,21.51,0,0,0,3.3,2.44c10.92-6.66-22.41-6.56-11.57.22a23.36,23.36,0,0,0,3.33-2.4C635.39,275.32,635.43,268.67,629.9,263.61Z"/><path class="cls-17" d="M628.77,244.45l-18.25-10.67-17.67,10.08,18.24,10.67c-.35.32-.65.66-1,1a26.94,26.94,0,0,0-6.13,8.83l-9.27-.05-16.62-.09L578,278.6l25.9.14a22.6,22.6,0,0,0,1.83,3.6,29.7,29.7,0,0,0,5.17,6.3l-18.35,10.47,2,1.14,15.27,8.93.33.19,18.35-10.46c1.66.61,3.37,1.14,5.1,1.64a85.82,85.82,0,0,0,12,2.53l0,4.37L645.45,318l-26.76.13.06-10.57,0-4.38a84.53,84.53,0,0,0,12-2.4c1.73-.48,3.44-1,5.1-1.59l18.25,10.67.3-.17,15.4-8.78,2-1.13-18.25-10.66a29.32,29.32,0,0,0,5.25-6.24,23.65,23.65,0,0,0,1.87-3.59l25.89.14.08-14.38L670,265l-9.27-.05a26.61,26.61,0,0,0-6-8.9c-.33-.33-.63-.68-1-1l18.36-10.47L654.53,234.3l-18.36,10.47a81.86,81.86,0,0,0-17.06-4.17l.08-14.95,26.76-.14-.08,15A81.88,81.88,0,0,0,628.77,244.45Zm1,35.88a23.36,23.36,0,0,1-3.33,2.4c-10.91,6.67,22.41,6.56,11.57-.22a21.51,21.51,0,0,1-3.3-2.44c-5.53-5.06-5.49-11.72.08-16.72,11.09-9.93-15.89-9.8-4.93.26C635.43,268.67,635.39,275.32,629.81,280.33Z"/><polygon class="cls-18" points="592.55 299.11 610.11 309.37 610 330.94 592.43 320.67 592.55 299.11"/><polygon class="cls-16" points="628.46 298.91 628.35 320.48 610 330.94 610.11 309.37 628.46 298.91"/><polygon class="cls-18" points="618.69 318.16 618.58 339.73 645.34 339.59 645.45 318.03 618.69 318.16"/><path class="cls-18" d="M645.53,303.08l-.11,21.56a83.81,83.81,0,0,1-17.07-4.16l.11-21.57C633.59,301.09,645.53,303.08,645.53,303.08Z"/><polygon class="cls-16" points="603.9 278.74 603.82 292.68 592.55 299.11 592.54 300.24 577.89 300.16 578 278.6 603.9 278.74"/><path class="cls-19" d="M603.9,278.74a28.28,28.28,0,0,0,7,9.9l-7.08,4Z"/><polygon class="cls-18" points="654.13 309.89 654.01 331.46 635.76 320.79 635.88 299.23 654.13 309.89"/><polygon class="cls-16" points="671.8 299.81 671.68 321.38 654.01 331.46 654.13 309.89 671.8 299.81"/><path class="cls-16" d="M635.88,299.22c.07-1.41-.12,21.57-.12,21.57a76.26,76.26,0,0,1-17.1,4c0-1.28.11-21.57.11-21.57A92.57,92.57,0,0,0,635.88,299.22Z"/><polygon class="cls-18" points="686.57 279.46 686.45 301.03 671.79 300.95 671.8 299.81 660.59 293.26 660.67 279.32 686.57 279.46"/><path class="cls-16" d="M660.67,279.32l-.08,13.95-7-4.12A31.33,31.33,0,0,0,660.67,279.32Z"/><path class="cls-16" d="M672.1,244.57,672,265.05l-11.24-.11a28.57,28.57,0,0,0-7-9.9Z"/><path class="cls-16" d="M611.09,254.53a29.38,29.38,0,0,0-7.12,9.82l-11.23-.06.11-20.43Z"/></g></g><path class="cls-8" d="M876.28,169.74c4.89,2.9,7.4,7.32,7.4,12.44v1l-4.75-2.82V179a4.93,4.93,0,0,0-2.52-4.65c-1.6-.95-2.51-.62-2.51,1.66,0,6.59,9.83,13.65,9.83,22.79,0,5.12-2.56,6.53-7.5,3.6s-7.49-7.37-7.49-12.49v-2l4.75,2.82v2.29a5,5,0,0,0,2.6,4.65c1.6.95,2.61.72,2.61-1.56,0-6.58-9.83-13.65-9.83-22.79C868.87,168.27,871.39,166.84,876.28,169.74Z"/><path class="cls-8" d="M891.63,192.7l6.91,4.1v4.57l-6.91-4.1v9.37l8.69,5.15v4.57l-13.71-8.13v-32l13.71,8.14v4.57l-8.69-5.15Z"/><path class="cls-8" d="M913.94,224.44a12.12,12.12,0,0,1-.46-4.2v-5c0-3-1-4.66-3.29-6l-1.74-1v13l-5-3v-32l7.58,4.5c5.21,3.1,7.45,6.85,7.45,11.78V205c0,3.29-1.05,4.81-3.29,4.53a11.69,11.69,0,0,1,3.34,8.79v4.94a11.8,11.8,0,0,0,.55,4.21Zm-5.49-30.67v9.82l2,1.17c1.87,1.11,3,1,3-1.59V200a5,5,0,0,0-2.56-4.81Z"/><path class="cls-8" d="M929.3,227.66l3.83-23.82,4.62,2.74-4.93,29.06-7.5-4.44-4.94-34.93,5.08,3Z"/><path class="cls-8" d="M945.11,224.43l6.9,4.09v4.57l-6.9-4.09v9.37l8.68,5.15v4.57L940.08,240V208l13.71,8.13v4.58l-8.68-5.16Z"/><path class="cls-8" d="M967.41,256.17A12.56,12.56,0,0,1,967,252v-5c0-3-1-4.66-3.29-6l-1.74-1v13l-5-3v-32l7.59,4.5c5.21,3.09,7.45,6.84,7.45,11.78v2.51c0,3.29-1.05,4.82-3.29,4.54a11.69,11.69,0,0,1,3.33,8.79V255a12,12,0,0,0,.55,4.21Zm-5.48-30.68v9.83l2,1.16c1.87,1.12,3,1,3-1.59v-3.15a5,5,0,0,0-2.56-4.81Z"/><polyline class="cls-5" points="243.18 1118.8 204.91 1157.07 166.65 1118.8"/><polyline class="cls-5" points="997.81 1118.8 959.54 1157.07 921.27 1118.8"/><path class="cls-2" d="M755,398.09"/><path class="cls-5" d="M143.15,811.06V792h5.6v6.44h33.6v6.16h-33.6v6.44Z"/><path class="cls-5" d="M143.15,789.33v-6.16h39.2v6.16Z"/><path class="cls-5" d="M171,765.64l-27.83-4.2v-8.57h39.2v5.83H154.24L182.35,763v5.83l-27.72,4.59h27.72v5.38h-39.2v-8.57Z"/><path class="cls-5" d="M159.67,742.24v-8.46h5.6v8.46h11.48V731.6h5.6v16.79h-39.2V731.6h5.6v10.64Z"/><path class="cls-20" d="M1312.56,1073.58"/><path class="cls-20" d="M1312.56,666"/><path class="cls-20" d="M1312.56,840.58"/><text class="cls-21" transform="matrix(1, 0.05, -0.05, 1, 417.39, 453.7)">Preload: &quot;/author&quot;, &quot;/reviews&quot;</text><rect class="cls-22" x="406.33" y="434.02" width="338.17" height="40.79" transform="translate(22.81 -27.48) rotate(2.79)"/><text class="cls-23" transform="translate(411.25 612.51) rotate(-2.75)">Link: &lt;/authors/1&gt;; rel=preload<tspan x="0" y="20">Link: &lt;/reviews/1&gt;; rel=preload</tspan><tspan x="0" y="40">Link: &lt;/reviews/2&gt;; rel=preload</tspan></text><rect class="cls-22" x="403.85" y="579.78" width="346.95" height="77.3" transform="translate(-29.5 28.92) rotate(-2.8)"/><text class="cls-24" transform="matrix(1, 0.05, -0.05, 1, 449.04, 852.98)">GET /REVIEWS/2</text><text class="cls-25" transform="matrix(1, 0.05, -0.05, 1, 448.67, 803.23)">GET /REVIEWS/1</text><text class="cls-26" transform="matrix(1, 0.05, -0.05, 1, 450.79, 752.17)">GET /AUTHORS/1</text><text class="cls-24" transform="translate(530.71 1067.18) rotate(-2.96)">200 OK</text><text class="cls-25" transform="translate(530.41 1016.79) rotate(-2.96)">200 OK</text><text class="cls-26" transform="translate(529.66 966.34) rotate(-2.96)">200 OK</text><rect class="cls-27" x="1111.64" y="427.58" width="345.35" height="229.52"/><rect class="cls-27" x="1111.04" y="668.08" width="345.95" height="157.52"/><rect class="cls-27" x="1111.2" y="838.85" width="345.78" height="156.7"/><rect class="cls-27" x="1111.2" y="1008.8" width="345.78" height="73.07"/><rect class="cls-9" x="1157.15" y="439.03" width="160.11" height="45.74"/><rect class="cls-9" x="1167.15" y="491.63" width="3.93" height="156.3"/><text class="cls-28" transform="translate(1148.34 472.13)"><tspan xml:space="preserve"> /BOOKS/1</tspan></text><text class="cls-29" transform="translate(1177.77 511.15)">{<tspan x="0" y="18" xml:space="preserve">  &quot;title&quot;: &quot;A book&quot;,</tspan><tspan x="0" y="36" xml:space="preserve">  &quot;author&quot;: &quot;/authors/1&quot;,</tspan><tspan x="0" y="54" xml:space="preserve">  &quot;reviews&quot;: [</tspan><tspan x="0" y="72" xml:space="preserve">    &quot;/reviews/1&quot;,</tspan><tspan x="0" y="90" xml:space="preserve">    &quot;/reviews/2&quot;</tspan><tspan x="0" y="108" xml:space="preserve">  ]</tspan><tspan x="0" y="126">}</tspan></text><rect class="cls-6" x="1157.15" y="679.31" width="195.74" height="45.74"/><rect class="cls-6" x="1167.15" y="731.91" width="4.24" height="81.78"/><text class="cls-28" transform="translate(1148.34 713.16)"><tspan xml:space="preserve"> /AUTHORS/1</tspan></text><text class="cls-29" transform="translate(1179.01 750.27)">{<tspan x="0" y="19" xml:space="preserve">  &quot;name&quot;: &quot;John Doe&quot;,</tspan><tspan x="0" y="38" xml:space="preserve">  &quot;bio&quot;: &quot;Lorem ipsum...&quot;</tspan><tspan x="0" y="57">}</tspan></text><text class="cls-29" transform="translate(1179.1 924.06)">{<tspan x="0" y="18" xml:space="preserve">  &quot;rating&quot;: 4,</tspan><tspan x="0" y="36" xml:space="preserve">  &quot;item&quot;: &quot;/books/1&quot;</tspan><tspan x="0" y="54">}</tspan></text><rect class="cls-30" x="1157.15" y="851.29" width="191.46" height="45.74"/><rect class="cls-31" x="1167.15" y="903.89" width="4.24" height="81.78"/><text class="cls-28" transform="translate(1147.57 884.46)"><tspan xml:space="preserve"> /REVIEWS/1</tspan></text><path class="cls-20" d="M1149.46,838.84"/><circle class="cls-32" cx="1111.22" cy="549.32" r="31.05"/><path class="cls-8" d="M1097.29,539.62l6.66,2.24c.55.24,3.15,1.19,7.77,0,5.83-1.45,18.46-3.95,18.59-4l-.47-2.37h-.09l-12-1.69a17.33,17.33,0,0,0-4.77.12l-16.09,3.12a4.71,4.71,0,0,0-4.75,3.27,4.65,4.65,0,0,0,.3,3.6,4.7,4.7,0,0,0,1.18,1.47,4.64,4.64,0,0,0-1.6,2.28,4.72,4.72,0,0,0,.31,3.61,4.81,4.81,0,0,0,1.26,1.53,4.71,4.71,0,0,0-1.57,2.26,4.77,4.77,0,0,0,.3,3.61,4.68,4.68,0,0,0,2.77,2.33l11.6,3.71a5.24,5.24,0,0,0,2.33.1l20.36-4.67-.27-1.17a1.2,1.2,0,0,0-1.45-.91l-18.54,4.24a5.1,5.1,0,0,1-2.33-.1l-11-3.5a2.32,2.32,0,0,1-1.34-1.14,2.25,2.25,0,0,1-.15-1.76,2.32,2.32,0,0,1,2.9-1.5l9.46,3a5.24,5.24,0,0,0,2.33.1l20.36-4.67-.27-1.18a1.22,1.22,0,0,0-1.45-.91L1109.09,555a5.24,5.24,0,0,1-2.33-.1l-11-3.5a2.32,2.32,0,0,1-1.34-1.14,2.25,2.25,0,0,1-.15-1.76,2.32,2.32,0,0,1,2.9-1.5l9.57,3a5.1,5.1,0,0,0,2.33.1l20.36-4.66-.27-1.18a1.21,1.21,0,0,0-1.45-.91l-18.53,4.24a5.28,5.28,0,0,1-2.34-.09l-11-3.51a2.28,2.28,0,0,1-1.35-1.14,2.25,2.25,0,0,1-.15-1.76A2.31,2.31,0,0,1,1097.29,539.62Z"/><circle class="cls-33" cx="1111.22" cy="927.56" r="31.05"/><path class="cls-8" d="M1130.89,921.13l-13.18-2-6-11.88-6,11.94-13.17,2.08,9.52,9.33L1100,943.82l11.76-6.18,11.94,6.05-2.22-13.14Zm-19.17,13.78V912.7h0l4.37,8.69,9.66,1.43-6.9,6.9,1.62,9.63Z"/><circle class="cls-34" cx="1111.22" cy="1045.33" r="31.05"/><path class="cls-8" d="M1130.89,1038.9l-13.18-2-6-11.88-6,11.94-13.17,2.08,9.52,9.33L1100,1061.6l11.76-6.18,11.94,6-2.22-13.13Zm-19.17,13.79v-22.21h0l4.37,8.7,9.66,1.43-6.9,6.89,1.62,9.63Z"/><circle class="cls-35" cx="1111.22" cy="749.96" r="31.05"/><path class="cls-8" d="M1110.93,733.28a9.18,9.18,0,1,0,9.18,9.18A9.21,9.21,0,0,0,1110.93,733.28Z"/><path class="cls-8" d="M1126.69,759a8.54,8.54,0,0,0-.92-1.68,11.43,11.43,0,0,0-7.9-5,1.71,1.71,0,0,0-1.17.28,9.81,9.81,0,0,1-11.55,0,1.5,1.5,0,0,0-1.16-.28,11.3,11.3,0,0,0-7.9,5,9.85,9.85,0,0,0-.92,1.68.87.87,0,0,0,0,.77,18.41,18.41,0,0,0,2.92,3.69c.57.56,1.21,1.08,1.85,1.6a18.29,18.29,0,0,0,21.82,0,17.58,17.58,0,0,0,1.84-1.6,19.58,19.58,0,0,0,1.85-2.09,14,14,0,0,0,1.08-1.6A.7.7,0,0,0,1126.69,759Z"/><rect class="cls-36" x="1166.74" y="1021.47" width="191.46" height="45.74"/><text class="cls-28" transform="translate(1157.15 1054.64)"><tspan xml:space="preserve"> /REVIEWS/1</tspan></text><text class="cls-37" transform="translate(538.8 564.1) rotate(-2.96)">200 OK</text><path class="cls-6" d="M945.48,789.86l-10.3-11.36a1,1,0,0,0-.69-.33l-7.21-.34a1,1,0,0,0-.79,1.67l4.7,5.18a1,1,0,0,1-.78,1.68l-716-42.44-.33,7,716,42.43a1,1,0,0,1,.62,1.74l-5.16,4.71a1,1,0,0,0,.62,1.74l7.21.34a1,1,0,0,0,.72-.26l11.32-10.35A1,1,0,0,0,945.48,789.86Z"/><path class="cls-30" d="M945.5,840.87l-10.3-11.36a1,1,0,0,0-.69-.33l-7.21-.34a1,1,0,0,0-.79,1.67l4.7,5.18a1,1,0,0,1-.78,1.67l-716-42.43-.33,7,716,42.43a1,1,0,0,1,.62,1.74l-5.16,4.71a1,1,0,0,0,.62,1.74l7.21.34a1,1,0,0,0,.72-.26l11.32-10.35A1,1,0,0,0,945.5,840.87Z"/><path class="cls-36" d="M945.52,891.06l-10.3-11.37a1,1,0,0,0-.69-.32l-7.21-.34a1,1,0,0,0-.79,1.67l4.7,5.18a1,1,0,0,1-.78,1.67l-716-42.43-.33,7,716,42.43a1,1,0,0,1,.62,1.74L925.58,901a1,1,0,0,0,.62,1.73l7.21.34a1,1,0,0,0,.72-.26l11.32-10.34A1,1,0,0,0,945.52,891.06Z"/><text class="cls-37" transform="matrix(1, 0.05, -0.05, 1, 463.88, 413.31)">GET /BOOKS/1</text><path class="cls-9" d="M945.9,448.66l-17.8-19.57a1.68,1.68,0,0,0-1.19-.56l-12.46-.59a1.72,1.72,0,0,0-1.35,2.88l8.12,8.92a1.72,1.72,0,0,1-1.36,2.88L205.2,406.52l-.57,12,714.67,36.1a1.72,1.72,0,0,1,1.08,3l-8.92,8.12a1.72,1.72,0,0,0,1.07,3l12.46.59a1.72,1.72,0,0,0,1.24-.45l19.56-17.81A1.72,1.72,0,0,0,945.9,448.66Z"/><polyline class="cls-38" points="1477.66 1100.81 1477.66 1106.81 1471.66 1106.81"/><line class="cls-39" x1="1459.66" y1="1106.81" x2="1081.66" y2="1106.81"/><polyline class="cls-38" points="1075.66 1106.81 1069.66 1106.81 1069.66 1100.81"/><line class="cls-40" x1="1069.66" y1="1088.77" x2="1069.66" y2="420.56"/><polyline class="cls-38" points="1069.66 414.54 1069.66 408.54 1075.66 408.54"/><line class="cls-39" x1="1087.66" y1="408.54" x2="1465.66" y2="408.54"/><polyline class="cls-38" points="1471.66 408.54 1477.66 408.54 1477.66 414.54"/><line class="cls-40" x1="1477.66" y1="426.58" x2="1477.66" y2="1094.79"/><line class="cls-41" x1="1134.52" y1="317.88" x2="1134.52" y2="408.54"/><circle class="cls-5" cx="1130.89" cy="289.74" r="66.14"/><path class="cls-8" d="M1130.89,362.88A73.15,73.15,0,1,1,1204,289.74,73.22,73.22,0,0,1,1130.89,362.88Zm0-132.29A59.15,59.15,0,1,0,1190,289.74,59.22,59.22,0,0,0,1130.89,230.59Z"/><text class="cls-42" transform="translate(1098.48 317.42)">API</text><circle class="cls-41" cx="1130.65" cy="289.98" r="72.9"/><path class="cls-9" d="M217.08,591.09l17.8-19.57a1.72,1.72,0,0,1,1.19-.56l12.46-.58a1.72,1.72,0,0,1,1.35,2.87l-8.12,8.92a1.72,1.72,0,0,0,1.36,2.88L957.78,549l.57,12-714.67,36.1a1.72,1.72,0,0,0-1.08,3l8.92,8.12a1.72,1.72,0,0,1-1.07,3l-12.46.59a1.73,1.73,0,0,1-1.24-.45l-19.56-17.81A1.72,1.72,0,0,1,217.08,591.09Z"/><path class="cls-6" d="M215.89,994.43l10.3-11.36a1,1,0,0,1,.69-.33l7.21-.34a1,1,0,0,1,.79,1.67l-4.7,5.18a1,1,0,0,0,.78,1.68l716-42.44.33,7-716,42.43a1,1,0,0,0-.62,1.74l5.16,4.71a1,1,0,0,1-.62,1.74l-7.21.34a1,1,0,0,1-.72-.26L216,995.84A1,1,0,0,1,215.89,994.43Z"/><path class="cls-30" d="M215.87,1045.44l10.3-11.36a1,1,0,0,1,.69-.33l7.21-.34a1,1,0,0,1,.79,1.67l-4.7,5.18a1,1,0,0,0,.78,1.67l716-42.43.33,7-716,42.44a1,1,0,0,0-.62,1.73l5.16,4.72a1,1,0,0,1-.62,1.74l-7.21.34a1,1,0,0,1-.72-.26l-11.33-10.35A1,1,0,0,1,215.87,1045.44Z"/><path class="cls-36" d="M215.85,1095.62l10.3-11.36a1,1,0,0,1,.69-.33l7.21-.33a1,1,0,0,1,.79,1.67l-4.7,5.18a1,1,0,0,0,.78,1.67l716-42.43.33,7-716,42.43a1,1,0,0,0-.62,1.74l5.16,4.72a1,1,0,0,1-.62,1.73l-7.21.34a1,1,0,0,1-.72-.26L215.92,1097A1,1,0,0,1,215.85,1095.62Z"/><circle class="cls-30" cx="959.93" cy="1002.35" r="18.79"/><path class="cls-5" d="M959.93,1023a20.61,20.61,0,1,1,20.6-20.6A20.62,20.62,0,0,1,959.93,1023Zm0-37.57a17,17,0,1,0,17,17A17,17,0,0,0,959.93,985.38Z"/><path class="cls-8" d="M971.83,998.46l-8-1.19-3.62-7.19-3.64,7.23-8,1.26,5.77,5.65-1.27,8,7.11-3.74,7.23,3.66-1.34-8Zm-11.59,8.34V993.36h0l2.65,5.27,5.84.86-4.18,4.18,1,5.82Z"/><circle class="cls-36" cx="960.64" cy="1053.05" r="18.79"/><path class="cls-5" d="M960.64,1073.65a20.61,20.61,0,1,1,20.61-20.6A20.62,20.62,0,0,1,960.64,1073.65Zm0-37.58a17,17,0,1,0,17,17A17,17,0,0,0,960.64,1036.07Z"/><path class="cls-8" d="M972.54,1049.15l-8-1.18-3.62-7.19-3.63,7.23-8,1.26,5.77,5.64-1.27,8,7.11-3.74,7.23,3.66-1.34-8ZM961,1057.5v-13.44h0l2.65,5.26,5.84.87-4.18,4.17,1,5.83Z"/><circle class="cls-6" cx="959.11" cy="953.35" r="18.79"/><path class="cls-5" d="M959.11,974a20.61,20.61,0,1,1,20.6-20.6A20.62,20.62,0,0,1,959.11,974Zm0-37.58a17,17,0,1,0,17,17A17,17,0,0,0,959.11,936.37Z"/><path class="cls-8" d="M958.93,943.25a5.56,5.56,0,1,0,5.56,5.55A5.56,5.56,0,0,0,958.93,943.25Z"/><path class="cls-8" d="M968.47,958.8a4.74,4.74,0,0,0-.56-1,6.84,6.84,0,0,0-4.78-3,1,1,0,0,0-.7.17,5.93,5.93,0,0,1-7,0,.9.9,0,0,0-.71-.17,6.82,6.82,0,0,0-4.78,3,5.88,5.88,0,0,0-.56,1,.56.56,0,0,0,0,.47,10.23,10.23,0,0,0,.65,1,9.6,9.6,0,0,0,1.12,1.26c.34.34.73.65,1.12,1a11.08,11.08,0,0,0,13.2,0,10.39,10.39,0,0,0,1.12-1,11.23,11.23,0,0,0,1.11-1.26,8.73,8.73,0,0,0,.66-1A.44.44,0,0,0,968.47,958.8Z"/><circle class="cls-9" cx="961.23" cy="550.86" r="26.05"/><path class="cls-5" d="M961.23,579.43a28.57,28.57,0,1,1,28.57-28.57A28.61,28.61,0,0,1,961.23,579.43Zm0-52.1a23.54,23.54,0,1,0,23.54,23.53A23.56,23.56,0,0,0,961.23,527.33Z"/><path class="cls-8" d="M949.55,542.72l5.58,1.88c.46.2,2.65,1,6.52,0,4.9-1.21,15.49-3.31,15.6-3.34l-.39-2-.07,0-10.1-1.43a14.56,14.56,0,0,0-4,.11l-13.5,2.62a3.94,3.94,0,0,0-3.73,5.76,3.81,3.81,0,0,0,1,1.23,4,4,0,0,0-1.09,4.94,3.8,3.8,0,0,0,1.07,1.28,4,4,0,0,0-1.07,4.93,4,4,0,0,0,2.32,2l9.73,3.11a4.48,4.48,0,0,0,2,.09L976.45,560l-.23-1a1,1,0,0,0-1.22-.76l-15.55,3.56a4.33,4.33,0,0,1-2-.08l-9.2-2.94a2,2,0,0,1-1.26-2.44,2,2,0,0,1,2.44-1.25l7.93,2.52a4.33,4.33,0,0,0,2,.08l17.09-3.91-.23-1a1,1,0,0,0-1.22-.76l-15.55,3.56a4.33,4.33,0,0,1-2-.08l-9.2-2.94a2,2,0,0,1-1.26-2.44,2,2,0,0,1,2.44-1.25l8,2.56a4.29,4.29,0,0,0,2,.08l17.09-3.91-.23-1a1,1,0,0,0-1.21-.76l-15.56,3.56a4.48,4.48,0,0,1-2-.08l-9.2-3a1.92,1.92,0,0,1-1.25-2.43A1.94,1.94,0,0,1,949.55,542.72Z"/><path class="cls-2" d="M398.49,205.24c0-107.14-86.86-194-194-194s-194,86.86-194,194,86.85,194,194,194v719.94"/></svg>