<svg id="Calque_1" data-name="Calque 1" xmlns="http://www.w3.org/2000/svg" xmlns:xlink="http://www.w3.org/1999/xlink" viewBox="0 0 1436.33 1017.22"><defs><style>.cls-1,.cls-3,.cls-32,.cls-33,.cls-34,.cls-35{fill:none;}.cls-2,.cls-25,.cls-28,.cls-29,.cls-31{fill:#f7851f;}.cls-3{stroke:#059dc1;stroke-linecap:round;stroke-width:21px;}.cls-29,.cls-3,.cls-30,.cls-32,.cls-33,.cls-34,.cls-35{stroke-miterlimit:10;}.cls-4{fill:#a7d3db;}.cls-19,.cls-20,.cls-30,.cls-5{fill:#005c79;}.cls-6{fill:#059dc1;}.cls-7{fill:#007ba3;}.cls-8{fill:#ba5a0c;}.cls-9{fill:#d8670b;}.cls-10{opacity:0.28;}.cls-11{clip-path:url(#clip-path);}.cls-12{opacity:0.2;}.cls-13{fill:#575757;}.cls-14{fill:#9c9c9c;}.cls-15{fill:#6b6b6b;}.cls-16{fill:#878787;}.cls-17,.cls-22,.cls-36{fill:#fff;}.cls-18{fill:#00394c;}.cls-19{font-size:37.45px;font-family:BebasNeueBold, Bebas Neue;letter-spacing:-0.01em;}.cls-20,.cls-31{font-size:26px;letter-spacing:-0.02em;}.cls-20,.cls-22,.cls-23,.cls-31{font-family:Consolas-Bold, Consolas;font-weight:700;}.cls-21{fill:#e5eaea;}.cls-22{font-size:32px;letter-spacing:-0.01em;}.cls-23{font-size:18px;}.cls-24{text-decoration:line-through;}.cls-25,.cls-27{letter-spacing:-0.05em;}.cls-26,.cls-28{letter-spacing:-0.05em;}.cls-29,.cls-30{stroke:#fff;stroke-width:6px;}.cls-32,.cls-33,.cls-34,.cls-35{stroke:#a7d3db;stroke-width:3px;}.cls-33{stroke-dasharray:11.9 11.9;}.cls-34{stroke-dasharray:11.66 11.66;}.cls-35{stroke-dasharray:12;}.cls-36{font-size:68px;font-family:BebasNeue, Bebas Neue;}.cls-37,.cls-38{font-size:20px;letter-spacing:-0.03em;}.cls-37{fill:#313333;}.cls-39{fill:#7c7c7c;letter-spacing:-0.03em;}</style><clipPath id="clip-path"><polyline class="cls-1" points="906.38 194.91 690.56 73.05 567.31 91.32 698.53 287.09 889.03 275.4"/></clipPath></defs><path class="cls-2" d="M807,478.16l-15.33-19.45a1.4,1.4,0,0,0-1-.55l-10.8-.51c-1.33-.06-2.09,1.76-1.2,2.89l7,8.86c.89,1.13.14,3-1.19,2.89l-620-31.65-.56,12,620,31.65c1.33.06,1.91,1.94.92,3L777,495.48c-1,1-.41,2.93.91,3l10.81.51a1.4,1.4,0,0,0,1.08-.46l17.08-17.92A1.92,1.92,0,0,0,807,478.16Z"/><path class="cls-3" d="M818.13,963V318.42A153.36,153.36,0,1,1,971.48,165.07"/><circle class="cls-4" cx="819.38" cy="166.55" r="129.75"/><path class="cls-5" d="M838.69,124.27h11.06l-2.66-6-110.26-43V214.64s0,0,0,.06v.17h0a1.22,1.22,0,0,0,.67.88l100.54,58.05a3.71,3.71,0,0,0,.64.25Z"/><path class="cls-6" d="M838.69,274.06s1.27.14,1.28.14h0a4.5,4.5,0,0,0,2-.56l60.44-34.89a1.66,1.66,0,0,0,1-1.25h0V97.92l-64.73,36.67.13,65.63"/><path class="cls-7" d="M836.74,134.34l-99-58.27c-1-.59-.89-1.62.29-2.29L798.5,39a4.43,4.43,0,0,1,4-.15l100.4,58.28c1,.58.89,1.61-.29,2.28L840.7,134.19A4.41,4.41,0,0,1,836.74,134.34Z"/><polygon class="cls-8" points="801.2 45.09 752.89 72.97 748.21 72.1 748.21 75.68 839.05 128.13 885.04 96.86 801.2 45.09"/><polygon class="cls-9" points="892.04 93.96 892.04 97.53 839.05 128.13 839.05 124.55 892.04 93.96"/><polygon class="cls-2" points="839.05 124.55 748.21 72.1 801.2 41.51 892.04 93.96 839.05 124.55"/><polygon class="cls-5" points="782.12 68.28 780.67 67.44 780.79 66.77 794.21 58.95 796.08 59.84 795.73 60.42 782.12 68.28"/><polygon class="cls-5" points="794.28 59.59 795.73 60.42 796.66 59.88 794.28 58.51 779.74 66.91 780.67 67.44 794.28 59.59"/><polygon class="cls-5" points="786.51 70.81 785.06 69.97 785.18 69.29 798.61 61.48 800.47 62.37 800.12 62.95 786.51 70.81"/><polygon class="cls-5" points="798.68 62.11 800.12 62.95 801.05 62.41 798.68 61.04 784.13 69.43 785.06 69.97 798.68 62.11"/><polygon class="cls-5" points="790.9 73.33 789.45 72.5 789.57 71.82 803 64.01 804.86 64.9 804.51 65.48 790.9 73.33"/><polygon class="cls-5" points="803.07 64.64 804.51 65.48 805.45 64.94 803.07 63.56 788.52 71.96 789.46 72.5 803.07 64.64"/><polygon class="cls-5" points="795.29 75.86 793.85 75.03 793.97 74.35 807.39 66.54 809.25 67.42 808.91 68 795.29 75.86"/><polygon class="cls-5" points="807.46 67.17 808.91 68 809.84 67.47 807.46 66.09 792.92 74.49 793.85 75.03 807.46 67.17"/><polygon class="cls-5" points="808.14 83.33 806.69 82.49 806.81 81.81 820.24 74 822.1 74.89 821.75 75.47 808.14 83.33"/><polygon class="cls-5" points="820.31 74.63 821.75 75.47 822.69 74.93 820.31 73.56 805.76 81.95 806.7 82.49 820.31 74.63"/><polygon class="cls-5" points="812.53 85.86 811.09 85.02 811.21 84.34 824.63 76.53 826.5 77.42 826.15 78 812.53 85.86"/><polygon class="cls-5" points="824.7 77.16 826.15 78 827.08 77.46 824.7 76.08 810.16 84.48 811.09 85.02 824.7 77.16"/><polygon class="cls-5" points="816.93 88.38 815.48 87.55 815.6 86.87 829.02 79.06 830.89 79.95 830.54 80.53 816.93 88.38"/><polygon class="cls-5" points="829.1 79.69 830.54 80.53 831.47 79.99 829.1 78.61 814.55 87.01 815.48 87.55 829.1 79.69"/><polygon class="cls-5" points="821.32 90.91 819.87 90.08 819.99 89.4 833.42 81.59 835.28 82.47 834.93 83.05 821.32 90.91"/><polygon class="cls-5" points="833.49 82.22 834.93 83.05 835.87 82.52 833.49 81.14 818.94 89.54 819.87 90.08 833.49 82.22"/><polygon class="cls-5" points="834.17 98.38 832.72 97.54 832.84 96.86 846.26 89.05 848.13 89.94 847.78 90.52 834.17 98.38"/><polygon class="cls-5" points="846.33 89.68 847.78 90.52 848.71 89.98 846.33 88.61 831.79 97 832.72 97.54 846.33 89.68"/><polygon class="cls-5" points="838.56 100.91 837.11 100.07 837.23 99.39 850.65 91.58 852.52 92.47 852.17 93.05 838.56 100.91"/><polygon class="cls-5" points="850.73 92.21 852.17 93.05 853.1 92.51 850.73 91.13 836.18 99.53 837.11 100.07 850.73 92.21"/><polygon class="cls-5" points="842.95 103.43 841.5 102.6 841.62 101.92 855.05 94.11 856.91 95 856.57 95.57 842.95 103.43"/><polygon class="cls-5" points="855.12 94.74 856.57 95.57 857.5 95.03 855.12 93.66 840.57 102.06 841.51 102.6 855.12 94.74"/><polygon class="cls-5" points="847.34 105.96 845.9 105.13 846.02 104.45 859.44 96.63 861.3 97.52 860.96 98.1 847.34 105.96"/><polygon class="cls-5" points="859.51 97.27 860.96 98.1 861.89 97.56 859.51 96.19 844.97 104.59 845.9 105.13 859.51 97.27"/><path class="cls-5" d="M851.19,201.73a1.69,1.69,0,0,1-.85-1.47V143.17a3.65,3.65,0,0,1,1.82-3.15l41.25-23.82a1.7,1.7,0,0,1,2.54,1.47v57.1a3.66,3.66,0,0,1-1.82,3.15l-41.25,23.81a1.69,1.69,0,0,1-.84.23A1.72,1.72,0,0,1,851.19,201.73ZM893.89,117l-41.25,23.82a2.67,2.67,0,0,0-1.33,2.31v57.09a.71.71,0,0,0,.36.63.73.73,0,0,0,.73,0l41.25-23.81a2.68,2.68,0,0,0,1.33-2.31v-57.1a.73.73,0,0,0-.36-.63.82.82,0,0,0-.37-.1A.78.78,0,0,0,893.89,117Z"/><g class="cls-10"><g class="cls-11"><path class="cls-12" d="M584.19,262.45c-24.79,14.31-24.12,14.31-48.9,0s-24.79-37.51,0-51.82,24.11-14.31,48.9,0S609,248.14,584.19,262.45Z"/><path class="cls-13" d="M557.82,211.8c-8.67-8,12.66-8.05,3.9-.2-4.41,4-4.43,9.21-.07,13.21a17.63,17.63,0,0,0,2.61,1.93c8.63-5.26-17.71-5.19-9.15.18a17.81,17.81,0,0,0,2.64-1.91C562.16,221.05,562.19,215.8,557.82,211.8Z"/><path class="cls-14" d="M556.92,196.65l-14.42-8.43-14,8L543,204.62c-.28.25-.51.52-.78.78a21.14,21.14,0,0,0-4.84,7l-7.33,0-13.14-.07-.07,11.37,20.47.11a19.21,19.21,0,0,0,1.46,2.85,23.38,23.38,0,0,0,4.08,5l-14.51,8.27,1.55.91,12.08,7,.26.16,14.5-8.27c1.31.48,2.66.9,4,1.29a67.67,67.67,0,0,0,9.47,2l0,3.46,0,8.36-21.15.1,0-8.36V243.1a67.53,67.53,0,0,0,9.49-1.89c1.37-.38,2.73-.79,4-1.26L577,248.39l.25-.14,12.16-6.94,1.56-.89L576.52,232a23.23,23.23,0,0,0,4.14-4.93,18.35,18.35,0,0,0,1.48-2.84l20.47.11.07-11.37-13.14-.07-7.33,0a21.05,21.05,0,0,0-4.77-7c-.26-.27-.5-.54-.78-.8l14.52-8.27-13.89-8.12-14.51,8.28a64.91,64.91,0,0,0-13.49-3.3l.07-11.82,21.15-.11-.06,11.82A64.82,64.82,0,0,0,556.92,196.65Zm.83,28.36a17.81,17.81,0,0,1-2.64,1.91c-8.62,5.26,17.72,5.18,9.15-.18a17.63,17.63,0,0,1-2.61-1.93c-4.36-4-4.34-9.26.07-13.21,8.76-7.85-12.57-7.75-3.9.2C562.19,215.8,562.16,221.05,557.75,225Z"/><polygon class="cls-15" points="528.29 239.86 542.18 247.98 542.09 265.02 528.2 256.91 528.29 239.86"/><polygon class="cls-13" points="556.68 239.71 556.59 256.75 542.09 265.02 542.18 247.98 556.68 239.71"/><polygon class="cls-15" points="548.96 254.92 548.87 271.97 570.02 271.87 570.12 254.82 548.96 254.92"/><path class="cls-15" d="M570.18,243l-.09,17.05a66.11,66.11,0,0,1-13.5-3.3l.09-17C560.74,241.43,570.18,243,570.18,243Z"/><polygon class="cls-13" points="537.26 223.76 537.21 234.78 528.29 239.86 528.29 240.76 516.7 240.69 516.79 223.65 537.26 223.76"/><path class="cls-16" d="M537.26,223.76a22.47,22.47,0,0,0,5.54,7.83l-5.59,3.19Z"/><polygon class="cls-15" points="576.97 248.39 576.88 265.43 562.46 257 562.55 239.95 576.97 248.39"/><polygon class="cls-13" points="590.94 240.42 590.85 257.47 576.88 265.43 576.97 248.39 590.94 240.42"/><path class="cls-13" d="M562.55,240c.05-1.12-.1,17.05-.1,17.05a59.93,59.93,0,0,1-13.52,3.15c0-1,.09-17,.09-17A73.16,73.16,0,0,0,562.55,240Z"/><polygon class="cls-15" points="602.61 224.33 602.52 241.38 590.94 241.32 590.94 240.42 582.09 235.24 582.14 224.22 602.61 224.33"/><path class="cls-13" d="M582.14,224.22l-.06,11L576.52,232A24.75,24.75,0,0,0,582.14,224.22Z"/><path class="cls-13" d="M591.18,196.75l-.09,16.19-8.88-.09a22.45,22.45,0,0,0-5.55-7.83Z"/><path class="cls-13" d="M543,204.62a23.14,23.14,0,0,0-5.62,7.76l-8.89,0,.09-16.15Z"/></g></g><path class="cls-17" d="M752.59,137.59a11.15,11.15,0,0,1,5.85,9.84v.79L754.68,146v-1.05a3.89,3.89,0,0,0-2-3.67c-1.26-.75-2-.49-2,1.32,0,5.2,7.76,10.78,7.76,18,0,4.05-2,5.16-5.92,2.84a11.21,11.21,0,0,1-5.93-9.87V152l3.76,2.22v1.81a4,4,0,0,0,2.06,3.68c1.27.75,2.06.57,2.06-1.24,0-5.2-7.77-10.78-7.77-18C746.73,136.43,748.72,135.3,752.59,137.59Z"/><path class="cls-17" d="M764.73,155.74l5.45,3.24v3.61l-5.45-3.23v7.4l6.86,4.08v3.61L760.75,168V142.73l10.84,6.43v3.61l-6.86-4.07Z"/><path class="cls-17" d="M782.36,180.84a9.68,9.68,0,0,1-.36-3.32v-4a4.87,4.87,0,0,0-2.61-4.76L778,168v10.3l-4-2.36V150.62l6,3.55c4.12,2.45,5.89,5.41,5.89,9.32v2c0,2.6-.83,3.81-2.6,3.59A9.23,9.23,0,0,1,786,176v3.9a9.63,9.63,0,0,0,.43,3.33ZM778,156.59v7.77l1.56.92c1.48.88,2.38.76,2.38-1.26v-2.5a4,4,0,0,0-2-3.8Z"/><path class="cls-17" d="M794.5,183.38l3-18.83,3.65,2.16-3.9,23-5.93-3.51-3.9-27.61,4,2.38Z"/><path class="cls-17" d="M807,180.82l5.45,3.24v3.61L807,184.44v7.4l6.86,4.08v3.61L803,193.1V167.81l10.84,6.43v3.61L807,173.78Z"/><path class="cls-17" d="M824.63,205.92a9.68,9.68,0,0,1-.36-3.32v-4a4.88,4.88,0,0,0-2.6-4.76l-1.37-.81v10.3l-4-2.36V175.7l6,3.55c4.12,2.45,5.89,5.41,5.89,9.31v2c0,2.6-.83,3.81-2.6,3.59a9.26,9.26,0,0,1,2.63,7V205a9.41,9.41,0,0,0,.44,3.33Zm-4.33-24.25v7.76l1.55.93c1.48.87,2.38.76,2.38-1.26v-2.5a4,4,0,0,0-2-3.8Z"/><polyline class="cls-6" points="857.57 952.85 819.3 991.12 781.03 952.85"/><path class="cls-3" d="M971.66,165.28A153.36,153.36,0,0,1,818.3,318.64"/><circle class="cls-4" cx="164.43" cy="164.13" r="125.61"/><path class="cls-18" d="M145.81,258.57a9.18,9.18,0,0,0-8.31,0l-37.43,20.2c-2.3,1.33-1.57,4.46.72,5.78l15.49,8.95a9.24,9.24,0,0,0,8.32,0l36.7-21.19c2.29-1.33,2.76-5.16.46-6.48Z"/><path class="cls-18" d="M278.38,234.83,238,213.91a4.07,4.07,0,0,0-3.65.15l-68.68,37.39c-1.08.62-.76,3.58.18,4.12L206,278.72a4,4,0,0,0,3.64-.15l68.24-39.4C278.91,238.55,279.31,235.37,278.38,234.83Z"/><path class="cls-6" d="M209.59,276.13a4,4,0,0,1-3.64.15l-40.11-23.15c-.94-.54-.82-1.48.26-2.11l68.24-39.4a4.07,4.07,0,0,1,3.65-.15l40.1,23.16c.94.54.82,1.48-.26,2.1Z"/><polygon class="cls-5" points="212.06 271.02 174.96 249.6 235.14 214.85 272.25 236.27 212.06 271.02"/><path class="cls-18" d="M191.86,263.6a4.85,4.85,0,0,1-4.36.18c-1.12-.65-1-1.77.31-2.52a4.88,4.88,0,0,1,4.36-.18C193.29,261.73,193.15,262.85,191.86,263.6Z"/><polygon class="cls-18" points="272.25 236.27 235.89 215.28 235.92 215.27 235.14 214.85 174.96 249.6 175.73 250.02 234.58 216.04 270.95 237.04 272.25 236.27"/><path class="cls-6" d="M145.81,256.58a9.18,9.18,0,0,0-8.31,0l-36.71,21.18c-2.29,1.33-2.29,3.48,0,4.8l15.49,8.95a9.24,9.24,0,0,0,8.32,0l36.7-21.19c2.29-1.33,2.29-3.48,0-4.8Z"/><path class="cls-18" d="M106.88,284.07l6.75,3.9a2.12,2.12,0,0,0,1.93,0,.59.59,0,0,0,0-1.12L108.81,283a2.12,2.12,0,0,0-1.93,0A.59.59,0,0,0,106.88,284.07Zm2,0a1.08,1.08,0,0,1,1,0l3.76,2.17c.27.15.27.4,0,.56a1.08,1.08,0,0,1-1,0l-3.76-2.17C108.59,284.5,108.59,284.25,108.86,284.1Z"/><rect class="cls-18" x="147.83" y="261.86" width="5.97" height="1" rx="0.5" transform="translate(150.25 564.98) rotate(-150)"/><path class="cls-5" d="M139.86,258.47l16.94,10.17a1.35,1.35,0,0,1,0,2.33l-31.9,18.22a1.93,1.93,0,0,1-1.88,0l-16-8.82a1.92,1.92,0,0,1-.07-3.33l31-18.59A1.93,1.93,0,0,1,139.86,258.47Z"/><path class="cls-18" d="M266.38,169.37l-6.9,3.61-69.2-40a5,5,0,0,0-4.52.19L66.4,202.12c-1.14-.64-6.35-3.14-6.35-3.14l2.53,6.58h0a1.51,1.51,0,0,0,.71.79l72.88,42.08a5.06,5.06,0,0,0,4.52-.19l122.14-70.52a2.18,2.18,0,0,0,1-1.09h0Z"/><path class="cls-7" d="M265.31,170.51,140.14,242.78a5.13,5.13,0,0,1-4.63.19l-74.7-43.13c-1.19-.68-1-1.88.33-2.67L186.32,124.9a5.13,5.13,0,0,1,4.63-.19l74.7,43.13C266.83,168.52,266.68,169.72,265.31,170.51Z"/><path class="cls-6" d="M80.29,195.8l104-60.05a2.24,2.24,0,0,1,2.24,0l37,21.43a.8.8,0,0,1,0,1.38l-104,60a2.24,2.24,0,0,1-2.24,0l-37.09-21.4A.8.8,0,0,1,80.29,195.8Z"/><polygon class="cls-17" points="189.34 141.18 98.99 193.34 94.97 191.03 185.32 138.86 189.34 141.18"/><polygon class="cls-17" points="199.19 146.86 114.44 195.79 110.42 193.47 195.18 144.54 199.19 146.86"/><polygon class="cls-17" points="205.61 150.57 105.82 208.18 101.8 205.86 201.59 148.25 205.61 150.57"/><polygon class="cls-17" points="212.02 154.27 112.24 211.88 108.22 209.56 208 151.95 212.02 154.27"/><polygon class="cls-17" points="218.44 157.97 118.65 215.59 114.64 213.27 214.42 155.66 218.44 157.97"/><polygon class="cls-17" points="93.53 196.5 89.51 198.82 85.49 196.5 89.51 194.18 93.53 196.5"/><polygon class="cls-17" points="107.7 199.69 99.36 204.5 95.34 202.18 103.68 197.37 107.7 199.69"/><path class="cls-6" d="M188.31,210.34l28.05-16.2a1.21,1.21,0,0,0,0-2.29l-19.18-11.07a4.41,4.41,0,0,0-4,0L165.16,197a1.21,1.21,0,0,0,0,2.29l19.18,11.08A4.41,4.41,0,0,0,188.31,210.34Z"/><path class="cls-18" d="M55.28,107.56v83.69c0,4,1.12,4.67,4.62,6.63l.08-.1L186.78,27.87l-.89-.41-.38-.17a5.46,5.46,0,0,0-.59-.3,7.76,7.76,0,0,0-1.37-.56,6.26,6.26,0,0,0-2.08-.26,6.39,6.39,0,0,0-2.31.58,8.48,8.48,0,0,0-1,.5L62,94C57.86,96.44,55.28,102.75,55.28,107.56Z"/><path class="cls-6" d="M62,197.91l124.43-71.64a6.41,6.41,0,0,0,3.21-5.55V32.79c0-2.82-3.06-6.45-5.51-5L64.2,96.79c-3.18,1.83-5.14,7.08-5.14,10.74v88.69A2,2,0,0,0,62,197.91Z"/><path class="cls-5" d="M182.9,124.45a7.29,7.29,0,0,0,3.65-6.32V36.34a2.82,2.82,0,0,0-4.23-2.45l-116.41,67a7.51,7.51,0,0,0-3.77,6.51v80.23a3.65,3.65,0,0,0,5.47,3.17Z"/><polygon class="cls-17" points="172.34 53.88 172.34 108.08 78.26 162.49 78.17 108.35 172.34 53.88"/><path class="cls-5" d="M95.44,104.24a4.2,4.2,0,0,1-1.91,3.27c-1.06.6-1.91.13-1.91-1.07a4.17,4.17,0,0,1,1.91-3.27C94.58,102.56,95.44,103,95.44,104.24Z"/><path class="cls-5" d="M90,107.36a4.2,4.2,0,0,1-1.91,3.27c-1.06.61-1.91.13-1.91-1.07a4.17,4.17,0,0,1,1.91-3.27C89.11,105.69,90,106.17,90,107.36Z"/><path class="cls-5" d="M84.5,110.49a4.2,4.2,0,0,1-1.91,3.27c-1,.6-1.91.13-1.91-1.07a4.2,4.2,0,0,1,1.91-3.27C83.64,108.81,84.5,109.29,84.5,110.49Z"/><polygon class="cls-2" points="170.35 67.81 170.35 71.76 80.58 123.68 80.5 119.78 170.35 67.81"/><polygon class="cls-2" points="150.82 270.68 147.22 268.5 143.21 270.86 146.81 273.04 150.82 270.68"/><polygon class="cls-17" points="145.58 267.51 141.98 265.33 137.97 267.69 141.57 269.87 145.58 267.51"/><polygon class="cls-17" points="140.35 264.34 136.75 262.16 132.74 264.52 136.34 266.7 140.35 264.34"/><polygon class="cls-17" points="145.11 274.04 141.51 271.86 137.5 274.22 141.1 276.4 145.11 274.04"/><polygon class="cls-17" points="139.88 270.87 136.28 268.69 132.27 271.05 135.87 273.23 139.88 270.87"/><polygon class="cls-17" points="134.64 267.7 131.04 265.52 127.03 267.88 130.63 270.06 134.64 267.7"/><polygon class="cls-17" points="139.41 277.39 135.81 275.21 131.8 277.57 135.4 279.75 139.41 277.39"/><polygon class="cls-17" points="133.71 280.75 130.11 278.57 126.1 280.93 129.7 283.11 133.71 280.75"/><polygon class="cls-17" points="123.24 274.41 119.64 272.23 115.63 274.59 119.22 276.77 123.24 274.41"/><polygon class="cls-2" points="134.18 274.22 130.58 272.04 126.56 274.4 130.16 276.58 134.18 274.22"/><polygon class="cls-17" points="128.94 271.05 125.34 268.87 121.33 271.23 124.93 273.41 128.94 271.05"/><polygon class="cls-2" points="210.45 231.86 242.09 250.52 258.85 240.76 227.21 222.1 210.45 231.86"/><polygon class="cls-17" points="207.72 233.45 239.36 252.11 240.23 251.6 208.59 232.94 207.72 233.45"/><polygon class="cls-17" points="205.36 234.82 237 253.48 237.87 252.98 206.23 234.31 205.36 234.82"/><polygon class="cls-17" points="203 236.19 234.64 254.86 235.51 254.35 203.87 235.69 203 236.19"/><polygon class="cls-17" points="229.87 220.27 261.51 238.93 264.37 237.43 232.73 218.77 229.87 220.27"/><polygon class="cls-17" points="208.54 262.72 204.94 260.54 200.93 262.9 204.53 265.08 208.54 262.72"/><polygon class="cls-2" points="201.31 258.56 197.71 256.38 193.7 258.74 197.3 260.92 201.31 258.56"/><polygon class="cls-17" points="194.09 254.39 190.49 252.21 186.47 254.57 190.07 256.75 194.09 254.39"/><text class="cls-19" transform="matrix(0.86, -0.51, 0, 0.79, 83.43, 150.82)">CLIENT</text><polyline class="cls-6" points="204.02 951.05 165.76 989.32 127.49 951.05"/><path class="cls-6" d="M104,759.24v-19h5.6v6.44h33.6v6.16H109.6v6.44Z"/><path class="cls-6" d="M104,737.51v-6.16h39.2v6.16Z"/><path class="cls-6" d="M131.83,713.82,104,709.62v-8.57h39.2v5.83H115.08l28.12,4.25V717l-27.72,4.59H143.2v5.38H104v-8.57Z"/><path class="cls-6" d="M120.52,690.41V682h5.6v8.45H137.6V679.77h5.6v16.8H104v-16.8h5.6v10.64Z"/><path class="cls-3" d="M317.21,163.86A153.36,153.36,0,1,0,163.86,317.21V951.05"/><path class="cls-3" d="M316.91,163.48A153.36,153.36,0,0,1,163.55,316.84"/><text class="cls-20" transform="matrix(1, -0.05, 0.05, 1, 457.61, 617.5)">200 OK</text><rect class="cls-21" x="905.58" y="388.49" width="512.15" height="166.93"/><rect class="cls-2" x="950.99" y="399.94" width="160.11" height="45.74"/><rect class="cls-2" x="960.99" y="452.54" width="3.93" height="91.4"/><text class="cls-22" transform="translate(942.18 433.04)"><tspan xml:space="preserve"> /BOOKS/1</tspan></text><text class="cls-23" transform="translate(971.61 468.45)">{<tspan x="0" y="18" xml:space="preserve">  </tspan><tspan class="cls-24" x="19.79" y="18">&quot;title&quot;: &quot;1984&quot;,</tspan><tspan x="0" y="36" xml:space="preserve">  &quot;genre&quot;: &quot;novel&quot;,</tspan><tspan x="0" y="54" xml:space="preserve">  &quot;author&quot;: &quot;/authors/1</tspan><tspan class="cls-25" x="227.62" y="54">?fields=</tspan><tspan class="cls-26" x="299.59" y="54">\</tspan><tspan class="cls-25" x="308.59" y="54">&quot;/givenName</tspan><tspan class="cls-27" x="407.55" y="54">\</tspan><tspan class="cls-28" x="416.54" y="54">&quot;</tspan><tspan class="cls-27" x="425.54" y="54">&quot;</tspan><tspan x="0" y="72">}</tspan></text><circle class="cls-29" cx="905.06" cy="457.99" r="31.05"/><path class="cls-17" d="M891.13,448.29l6.66,2.24c.55.24,3.15,1.19,7.77.05,5.83-1.45,18.46-4,18.59-4l-.47-2.38-.08,0-12-1.7a17.33,17.33,0,0,0-4.77.13l-16.09,3.12a4.71,4.71,0,0,0-4.45,6.87,4.82,4.82,0,0,0,1.18,1.47,4.64,4.64,0,0,0-1.6,2.28,4.73,4.73,0,0,0,1.57,5.13,4.73,4.73,0,0,0,1.5,8.21l11.6,3.71a5.24,5.24,0,0,0,2.33.1l20.36-4.67-.27-1.18a1.21,1.21,0,0,0-1.45-.91l-18.54,4.25a5.24,5.24,0,0,1-2.33-.1l-11-3.51a2.26,2.26,0,0,1-1.34-1.14,2.23,2.23,0,0,1-.15-1.75,2.31,2.31,0,0,1,2.9-1.5l9.46,3a5.24,5.24,0,0,0,2.33.09l20.36-4.66-.27-1.18a1.21,1.21,0,0,0-1.45-.91l-18.54,4.25a5.24,5.24,0,0,1-2.33-.1l-11-3.51a2.32,2.32,0,0,1-1.49-2.9,2.32,2.32,0,0,1,2.9-1.49l9.57,3.05a5.24,5.24,0,0,0,2.33.1l20.36-4.67L923,453a1.2,1.2,0,0,0-1.45-.9l-18.53,4.24a5.15,5.15,0,0,1-2.34-.1l-11-3.5a2.31,2.31,0,0,1-1.35-1.14,2.25,2.25,0,0,1-.15-1.76A2.3,2.3,0,0,1,891.13,448.29Z"/><rect class="cls-21" x="904.88" y="569.1" width="512.85" height="157.52"/><rect class="cls-5" x="950.99" y="580.34" width="195.74" height="45.74"/><rect class="cls-5" x="960.99" y="632.94" width="4.24" height="81.78"/><text class="cls-22" transform="translate(942.18 614.19)"><tspan xml:space="preserve"> /AUTHORS/1</tspan></text><text class="cls-23" transform="translate(972.85 651.29)">{<tspan x="0" y="19" xml:space="preserve">  </tspan><tspan class="cls-24" x="19.79" y="19">&quot;givenName&quot;: &quot;George&quot;,</tspan><tspan x="0" y="38" xml:space="preserve">  &quot;familyName&quot;: &quot;Orwell&quot;</tspan><tspan x="0" y="57">}</tspan></text><circle class="cls-30" cx="905.06" cy="650.98" r="31.05"/><path class="cls-17" d="M904.77,634.3a9.19,9.19,0,1,0,9.18,9.18A9.21,9.21,0,0,0,904.77,634.3Z"/><path class="cls-17" d="M920.53,660a8.34,8.34,0,0,0-.92-1.69,11.4,11.4,0,0,0-7.9-5,1.71,1.71,0,0,0-1.17.28,9.81,9.81,0,0,1-11.55,0,1.5,1.5,0,0,0-1.16-.28,11.3,11.3,0,0,0-7.9,5A9.57,9.57,0,0,0,889,660a.85.85,0,0,0,0,.76,16,16,0,0,0,1.08,1.6,15.29,15.29,0,0,0,1.84,2.09c.57.56,1.21,1.08,1.85,1.6a18.29,18.29,0,0,0,21.82,0,17.58,17.58,0,0,0,1.84-1.6,18.65,18.65,0,0,0,1.85-2.09,14,14,0,0,0,1.08-1.6A.68.68,0,0,0,920.53,660Z"/><text class="cls-31" transform="matrix(1, -0.05, 0.05, 1, 462.61, 558.19)">200 OK</text><polyline class="cls-32" points="1435.02 738.17 1435.02 744.17 1429.02 744.17"/><line class="cls-33" x1="1417.11" y1="744.17" x2="875.46" y2="744.17"/><polyline class="cls-32" points="869.5 744.17 863.5 744.17 863.5 738.17"/><line class="cls-34" x1="863.5" y1="726.51" x2="863.5" y2="382.46"/><polyline class="cls-32" points="863.5 376.63 863.5 370.63 869.5 370.63"/><line class="cls-33" x1="881.41" y1="370.63" x2="1423.07" y2="370.63"/><polyline class="cls-32" points="1429.02 370.63 1435.02 370.63 1435.02 376.63"/><line class="cls-34" x1="1435.02" y1="388.29" x2="1435.02" y2="732.34"/><line class="cls-35" x1="994.02" y1="279.97" x2="994.02" y2="370.63"/><circle class="cls-6" cx="990.38" cy="251.83" r="66.14"/><path class="cls-17" d="M990.38,325a73.15,73.15,0,1,1,73.15-73.15A73.22,73.22,0,0,1,990.38,325Zm0-132.29a59.15,59.15,0,1,0,59.15,59.14A59.21,59.21,0,0,0,990.38,192.69Z"/><text class="cls-36" transform="translate(957.97 279.51)">API</text><circle class="cls-35" cx="990.14" cy="252.08" r="72.9"/><path class="cls-2" d="M176.23,583.21l15-19.43a1.36,1.36,0,0,1,1-.56l10.59-.49c1.31-.07,2,1.76,1.17,2.88l-6.84,8.86c-.87,1.13-.13,2.95,1.18,2.89L806,546.29l.57,12L198.9,589.4c-1.3.06-1.87,1.94-.89,3l7.64,8.18c1,1,.41,2.92-.9,3l-10.59.5a1.33,1.33,0,0,1-1-.45l-16.77-17.94A2,2,0,0,1,176.23,583.21Z"/><path class="cls-5" d="M176.39,641.32l9.21-11.2a.82.82,0,0,1,.61-.32l6.31-.23a1,1,0,0,1,.65,1.69l-4.2,5.1a1,1,0,0,0,.66,1.69l626.5-31.4.16,7-626.5,31.4a1,1,0,0,0-.57,1.72l4.43,4.8a1,1,0,0,1-.58,1.73l-6.31.22a.77.77,0,0,1-.62-.27l-9.71-10.52A1.1,1.1,0,0,1,176.39,641.32Z"/><circle class="cls-5" cx="821.51" cy="604.02" r="18.79"/><path class="cls-6" d="M821.51,624.62a20.6,20.6,0,1,1,20.6-20.6A20.62,20.62,0,0,1,821.51,624.62Zm0-37.57a17,17,0,1,0,17,17A17,17,0,0,0,821.51,587.05Z"/><path class="cls-17" d="M821.51,593.18a5.56,5.56,0,1,0,5.56,5.56A5.57,5.57,0,0,0,821.51,593.18Z"/><path class="cls-17" d="M831.05,608.74a5.61,5.61,0,0,0-.56-1,6.93,6.93,0,0,0-4.78-3,1,1,0,0,0-.7.17,5.93,5.93,0,0,1-7,0,.91.91,0,0,0-.71-.17,6.87,6.87,0,0,0-4.78,3,6.37,6.37,0,0,0-.56,1,.5.5,0,0,0,0,.46,8.62,8.62,0,0,0,.65,1,9,9,0,0,0,1.12,1.26c.34.34.73.66,1.11,1a11.06,11.06,0,0,0,13.21,0,10.28,10.28,0,0,0,1.11-1,10.48,10.48,0,0,0,1.12-1.26,9.2,9.2,0,0,0,.66-1A.42.42,0,0,0,831.05,608.74Z"/><circle class="cls-2" cx="822.1" cy="542.98" r="26.05"/><path class="cls-6" d="M822.1,571.55A28.57,28.57,0,1,1,850.67,543,28.61,28.61,0,0,1,822.1,571.55Zm0-52.1A23.53,23.53,0,1,0,845.64,543,23.55,23.55,0,0,0,822.1,519.45Z"/><path class="cls-17" d="M810.41,535l5.59,1.87c.46.2,2.65,1,6.52,0,4.89-1.21,15.49-3.3,15.6-3.32l-.4-2h-.07l-10.1-1.41a14.49,14.49,0,0,0-4,.1l-13.5,2.6a4,4,0,0,0-4,2.72,3.9,3.9,0,0,0,1.24,4.22,4,4,0,0,0-1.33,1.9,3.85,3.85,0,0,0,.25,3,4,4,0,0,0,1.06,1.27,4,4,0,0,0-1.31,1.89,3.82,3.82,0,0,0,.25,3,3.92,3.92,0,0,0,2.32,1.94l9.73,3.09a4.32,4.32,0,0,0,2,.08l17.09-3.88s-.11-.44-.23-1a1,1,0,0,0-1.22-.76L820.32,554a4.47,4.47,0,0,1-2-.09l-9.2-2.92a1.9,1.9,0,0,1-1.26-2.41,2,2,0,0,1,2.43-1.25l7.94,2.51a4.33,4.33,0,0,0,2,.08L837.32,546s-.11-.44-.23-1a1,1,0,0,0-1.22-.75l-15.55,3.53a4.32,4.32,0,0,1-2-.08l-9.2-2.92a1.91,1.91,0,0,1-1.26-2.41,2,2,0,0,1,2.43-1.25l8,2.54a4.43,4.43,0,0,0,2,.09l17.09-3.89s-.1-.44-.23-1a1,1,0,0,0-1.21-.76l-15.56,3.54a4.48,4.48,0,0,1-2-.09l-9.2-2.92a1.87,1.87,0,0,1-1.13-.95,1.9,1.9,0,0,1-.13-1.46A1.94,1.94,0,0,1,810.41,535Z"/><text class="cls-31" transform="matrix(1, 0.05, -0.05, 1, 307.04, 401.86)">GET <tspan class="cls-37"><tspan x="0" y="20">/books/1</tspan><tspan class="cls-2" x="83.17" y="20">?fields=&quot;/author/familyName&quot;</tspan></tspan><tspan class="cls-38"><tspan x="0" y="40">&amp;fields=&quot;/genre&quot; </tspan><tspan class="cls-39" x="176.73" y="40">&amp;preload=&quot;/author&quot;</tspan></tspan></text></svg>