<svg id="Calque_1" data-name="Calque 1" xmlns="http://www.w3.org/2000/svg" xmlns:xlink="http://www.w3.org/1999/xlink" viewBox="0 0 1436.33 1107.05"><defs><style>.cls-1,.cls-10,.cls-39,.cls-40,.cls-41,.cls-42{fill:none;}.cls-2,.cls-3,.cls-4,.cls-5{font-size:26px;letter-spacing:-0.02em;}.cls-2,.cls-38,.cls-9{fill:#ff2f51;}.cls-2,.cls-27,.cls-28,.cls-3,.cls-4,.cls-5{font-family:Consolas-Bold, Consolas;font-weight:700;}.cls-3,.cls-37,.cls-8{fill:#00c5d6;}.cls-25,.cls-29,.cls-4,.cls-7{fill:#005c79;}.cls-33,.cls-35,.cls-36,.cls-5,.cls-6{fill:#f7851f;}.cls-10{stroke:#059dc1;stroke-linecap:round;stroke-width:21px;}.cls-10,.cls-29,.cls-36,.cls-37,.cls-38,.cls-39,.cls-40,.cls-41,.cls-42{stroke-miterlimit:10;}.cls-11{fill:#a7d3db;}.cls-12{fill:#059dc1;}.cls-13{fill:#007ba3;}.cls-14{fill:#ba5a0c;}.cls-15{fill:#d8670b;}.cls-16{opacity:0.28;}.cls-17{clip-path:url(#clip-path);}.cls-18{opacity:0.2;}.cls-19{fill:#575757;}.cls-20{fill:#9c9c9c;}.cls-21{fill:#6b6b6b;}.cls-22{fill:#878787;}.cls-23,.cls-27,.cls-43{fill:#fff;}.cls-24{fill:#00394c;}.cls-25{font-size:37.45px;font-family:BebasNeueBold, Bebas Neue;letter-spacing:-0.01em;}.cls-26{fill:#e5eaea;}.cls-27{font-size:32px;letter-spacing:-0.01em;}.cls-28{font-size:18px;}.cls-29,.cls-36,.cls-37,.cls-38{stroke:#fff;stroke-width:6px;}.cls-30,.cls-33{letter-spacing:-0.05em;}.cls-31{letter-spacing:-0.25em;}.cls-32{letter-spacing:1.45em;}.cls-34,.cls-35{letter-spacing:-0.05em;}.cls-39,.cls-40,.cls-41,.cls-42{stroke:#a7d3db;stroke-width:3px;}.cls-40{stroke-dasharray:12.16 12.16;}.cls-41{stroke-dasharray:11.88 11.88;}.cls-42{stroke-dasharray:12;}.cls-43{font-size:68px;font-family:BebasNeue, Bebas Neue;}.cls-44{fill:#313333;}.cls-44,.cls-45{font-size:20px;letter-spacing:-0.03em;}</style><clipPath id="clip-path"><polyline class="cls-1" points="1006.11 194.91 790.29 73.05 667.04 91.32 798.26 287.09 988.76 275.4"/></clipPath></defs><text class="cls-2" transform="matrix(1, -0.05, 0.05, 1, 466.93, 841.44)">SERVER PUSH</text><text class="cls-3" transform="matrix(1, -0.05, 0.05, 1, 466.62, 797.05)">SERVER PUSH</text><text class="cls-4" transform="matrix(1, -0.05, 0.05, 1, 465.87, 752.6)">SERVER PUSH</text><text class="cls-5" transform="matrix(1, -0.05, 0.05, 1, 503.6, 689.84)">200 OK</text><path class="cls-6" d="M904.72,542.71l-17.8-19.57a1.72,1.72,0,0,0-1.19-.56L873.27,522a1.72,1.72,0,0,0-1.35,2.88l8.12,8.92a1.72,1.72,0,0,1-1.36,2.88L164,500.57l-.56,12,714.67,36.1a1.72,1.72,0,0,1,1.07,3l-8.91,8.12a1.72,1.72,0,0,0,1.07,3l12.46.59a1.73,1.73,0,0,0,1.24-.45l19.56-17.81A1.72,1.72,0,0,0,904.72,542.71Z"/><path class="cls-6" d="M176.9,717.31l17.8-19.57a1.72,1.72,0,0,1,1.19-.56l12.45-.58a1.72,1.72,0,0,1,1.36,2.88l-8.12,8.91a1.72,1.72,0,0,0,1.36,2.88l714.66-36.1.57,12L203.5,723.31a1.72,1.72,0,0,0-1.08,3l8.92,8.12a1.72,1.72,0,0,1-1.07,3l-12.46.58a1.72,1.72,0,0,1-1.24-.45L177,719.74A1.72,1.72,0,0,1,176.9,717.31Z"/><path class="cls-7" d="M175.71,777.37,186,766a1,1,0,0,1,.69-.33l7.21-.33a1,1,0,0,1,.78,1.67L190,772.2a1,1,0,0,0,.78,1.67l716-42.43.33,7-716,42.43a1,1,0,0,0-.63,1.74l5.17,4.72a1,1,0,0,1-.62,1.73l-7.22.34a.94.94,0,0,1-.71-.26l-11.33-10.34A1,1,0,0,1,175.71,777.37Z"/><path class="cls-8" d="M175.69,822.38,186,811a1,1,0,0,1,.69-.33l7.21-.34a1,1,0,0,1,.78,1.68L190,817.2a1,1,0,0,0,.78,1.68l716-42.43.33,7-716,42.43a1,1,0,0,0-.63,1.74l5.17,4.71a1,1,0,0,1-.62,1.74l-7.22.34a1,1,0,0,1-.71-.26L175.75,823.8A1,1,0,0,1,175.69,822.38Z"/><path class="cls-9" d="M175.67,866.57,186,855.2a1,1,0,0,1,.69-.32l7.21-.34a1,1,0,0,1,.78,1.67L190,861.39a1,1,0,0,0,.78,1.67l716-42.43.33,7-716,42.43a1,1,0,0,0-.62,1.74l5.16,4.72a1,1,0,0,1-.62,1.74l-7.21.34a1,1,0,0,1-.72-.26L175.73,868A1,1,0,0,1,175.67,866.57Z"/><path class="cls-10" d="M917.86,1078.87V318.42a153.36,153.36,0,1,1,153.36-153.35"/><circle class="cls-11" cx="919.11" cy="166.55" r="129.75"/><path class="cls-7" d="M938.42,124.27h11.06l-2.66-6-110.26-43V214.64s0,0,0,.06v.17h0a1.25,1.25,0,0,0,.67.88l100.54,58.05a3.71,3.71,0,0,0,.64.25Z"/><path class="cls-12" d="M938.42,274.06s1.27.14,1.28.14h0a4.5,4.5,0,0,0,2-.56l60.44-34.89a1.66,1.66,0,0,0,1-1.25h0V97.92l-64.73,36.67.14,65.63"/><path class="cls-13" d="M936.47,134.34l-99-58.27c-1-.59-.89-1.62.29-2.29L898.23,39a4.43,4.43,0,0,1,4-.15l100.4,58.28c1,.58.89,1.61-.29,2.28l-61.88,34.76A4.41,4.41,0,0,1,936.47,134.34Z"/><polygon class="cls-14" points="900.93 45.09 852.62 72.97 847.94 72.1 847.94 75.68 938.78 128.13 984.78 96.86 900.93 45.09"/><polygon class="cls-15" points="991.77 93.96 991.77 97.53 938.78 128.13 938.78 124.55 991.77 93.96"/><polygon class="cls-6" points="938.78 124.55 847.94 72.1 900.93 41.51 991.77 93.96 938.78 124.55"/><polygon class="cls-7" points="881.85 68.28 880.4 67.44 880.52 66.77 893.95 58.95 895.81 59.84 895.46 60.42 881.85 68.28"/><polygon class="cls-7" points="894.02 59.59 895.46 60.42 896.39 59.88 894.02 58.51 879.47 66.91 880.4 67.44 894.02 59.59"/><polygon class="cls-7" points="886.24 70.81 884.79 69.97 884.91 69.29 898.34 61.48 900.2 62.37 899.85 62.95 886.24 70.81"/><polygon class="cls-7" points="898.41 62.11 899.85 62.95 900.79 62.41 898.41 61.04 883.86 69.43 884.8 69.97 898.41 62.11"/><polygon class="cls-7" points="890.63 73.33 889.18 72.5 889.31 71.82 902.73 64.01 904.59 64.9 904.25 65.48 890.63 73.33"/><polygon class="cls-7" points="902.8 64.64 904.25 65.48 905.18 64.94 902.8 63.56 888.26 71.96 889.19 72.5 902.8 64.64"/><polygon class="cls-7" points="895.03 75.86 893.58 75.03 893.7 74.35 907.12 66.54 908.99 67.42 908.64 68 895.03 75.86"/><polygon class="cls-7" points="907.19 67.17 908.64 68 909.57 67.47 907.19 66.09 892.65 74.49 893.58 75.03 907.19 67.17"/><polygon class="cls-7" points="907.87 83.33 906.42 82.49 906.54 81.81 919.97 74 921.83 74.89 921.49 75.47 907.87 83.33"/><polygon class="cls-7" points="920.04 74.63 921.49 75.47 922.42 74.93 920.04 73.56 905.5 81.95 906.43 82.49 920.04 74.63"/><polygon class="cls-7" points="912.27 85.86 910.82 85.02 910.94 84.34 924.36 76.53 926.23 77.42 925.88 78 912.27 85.86"/><polygon class="cls-7" points="924.43 77.16 925.88 78 926.81 77.46 924.43 76.08 909.89 84.48 910.82 85.02 924.43 77.16"/><polygon class="cls-7" points="916.66 88.38 915.21 87.55 915.33 86.87 928.75 79.06 930.62 79.95 930.27 80.53 916.66 88.38"/><polygon class="cls-7" points="928.83 79.69 930.27 80.53 931.2 79.99 928.83 78.61 914.28 87.01 915.21 87.55 928.83 79.69"/><polygon class="cls-7" points="921.05 90.91 919.6 90.08 919.72 89.4 933.15 81.59 935.01 82.47 934.66 83.05 921.05 90.91"/><polygon class="cls-7" points="933.22 82.22 934.66 83.05 935.6 82.52 933.22 81.14 918.67 89.54 919.61 90.08 933.22 82.22"/><polygon class="cls-7" points="933.9 98.38 932.45 97.54 932.57 96.86 945.99 89.05 947.86 89.94 947.51 90.52 933.9 98.38"/><polygon class="cls-7" points="946.07 89.68 947.51 90.52 948.44 89.98 946.07 88.61 931.52 97 932.45 97.54 946.07 89.68"/><polygon class="cls-7" points="938.29 100.91 936.84 100.07 936.96 99.39 950.39 91.58 952.25 92.47 951.9 93.05 938.29 100.91"/><polygon class="cls-7" points="950.46 92.21 951.9 93.05 952.84 92.51 950.46 91.13 935.91 99.53 936.85 100.07 950.46 92.21"/><polygon class="cls-7" points="942.68 103.43 941.24 102.6 941.36 101.92 954.78 94.11 956.64 95 956.3 95.57 942.68 103.43"/><polygon class="cls-7" points="954.85 94.74 956.3 95.57 957.23 95.03 954.85 93.66 940.3 102.06 941.24 102.6 954.85 94.74"/><polygon class="cls-7" points="947.08 105.96 945.63 105.13 945.75 104.45 959.17 96.63 961.04 97.52 960.69 98.1 947.08 105.96"/><polygon class="cls-7" points="959.24 97.27 960.69 98.1 961.62 97.56 959.24 96.19 944.7 104.59 945.63 105.13 959.24 97.27"/><path class="cls-7" d="M950.92,201.73a1.69,1.69,0,0,1-.85-1.47V143.17a3.65,3.65,0,0,1,1.82-3.15l41.25-23.82a1.68,1.68,0,0,1,1.69,0,1.64,1.64,0,0,1,.85,1.46v57.1a3.64,3.64,0,0,1-1.82,3.15l-41.25,23.81a1.69,1.69,0,0,1-.84.23A1.75,1.75,0,0,1,950.92,201.73ZM993.62,117l-41.25,23.82a2.67,2.67,0,0,0-1.33,2.31v57.09a.73.73,0,0,0,1.09.63l41.25-23.81a2.68,2.68,0,0,0,1.33-2.31v-57.1a.73.73,0,0,0-.36-.63.72.72,0,0,0-.73,0Z"/><g class="cls-16"><g class="cls-17"><path class="cls-18" d="M683.92,262.45c-24.78,14.31-24.12,14.31-48.9,0s-24.79-37.51,0-51.82,24.12-14.31,48.9,0S708.71,248.14,683.92,262.45Z"/><path class="cls-19" d="M657.55,211.8c-8.67-8,12.66-8.05,3.9-.2-4.4,4-4.43,9.21-.07,13.21a18.17,18.17,0,0,0,2.61,1.93c8.64-5.26-17.71-5.19-9.14.18a18.25,18.25,0,0,0,2.63-1.91C661.9,221.05,661.92,215.8,657.55,211.8Z"/><path class="cls-20" d="M656.66,196.65l-14.43-8.43-14,8,14.42,8.43c-.28.25-.51.52-.78.78a21.29,21.29,0,0,0-4.84,7l-7.33,0-13.14-.07-.06,11.37,20.47.11a18.22,18.22,0,0,0,1.45,2.85,23.38,23.38,0,0,0,4.08,5L628,239.86l1.54.91,12.08,7,.26.16,14.51-8.27c1.3.48,2.66.9,4,1.29a67.23,67.23,0,0,0,9.46,2l0,3.46,0,8.36-21.16.1,0-8.36,0-3.46a68.1,68.1,0,0,0,9.49-1.89c1.37-.38,2.72-.79,4-1.26l14.42,8.44.25-.14,12.16-6.94,1.56-.89L676.25,232a23.23,23.23,0,0,0,4.14-4.93,19.34,19.34,0,0,0,1.49-2.84l20.47.11.06-11.37-13.14-.07-7.33,0a21.05,21.05,0,0,0-4.77-7c-.26-.27-.5-.54-.77-.8l14.51-8.27L677,188.63l-14.52,8.28a64.91,64.91,0,0,0-13.49-3.3l.07-11.82,21.15-.11-.06,11.82A64.58,64.58,0,0,0,656.66,196.65Zm.82,28.36a18.25,18.25,0,0,1-2.63,1.91c-8.63,5.26,17.71,5.18,9.14-.18a18.17,18.17,0,0,1-2.61-1.93c-4.36-4-4.33-9.26.07-13.21,8.76-7.85-12.57-7.75-3.9.2C661.92,215.8,661.9,221.05,657.48,225Z"/><polygon class="cls-21" points="628.02 239.86 641.91 247.98 641.82 265.02 627.93 256.91 628.02 239.86"/><polygon class="cls-19" points="656.41 239.71 656.32 256.75 641.82 265.02 641.91 247.98 656.41 239.71"/><polygon class="cls-21" points="648.69 254.92 648.6 271.97 669.75 271.87 669.85 254.82 648.69 254.92"/><path class="cls-21" d="M669.91,243l-.09,17.05a66.27,66.27,0,0,1-13.5-3.3l.1-17C660.47,241.43,669.91,243,669.91,243Z"/><polygon class="cls-19" points="637 223.76 636.94 234.78 628.02 239.86 628.02 240.76 616.43 240.69 616.53 223.65 637 223.76"/><path class="cls-22" d="M637,223.76a22.37,22.37,0,0,0,5.53,7.83l-5.59,3.19Z"/><polygon class="cls-21" points="676.7 248.39 676.61 265.43 662.19 257 662.28 239.95 676.7 248.39"/><polygon class="cls-19" points="690.67 240.42 690.58 257.47 676.61 265.43 676.7 248.39 690.67 240.42"/><path class="cls-19" d="M662.28,240c.06-1.12-.09,17.05-.09,17.05a60.1,60.1,0,0,1-13.53,3.15c0-1,.1-17,.1-17A73,73,0,0,0,662.28,240Z"/><polygon class="cls-21" points="702.35 224.33 702.25 241.38 690.67 241.32 690.67 240.42 681.82 235.24 681.88 224.22 702.35 224.33"/><path class="cls-19" d="M681.88,224.22l-.06,11L676.25,232A24.86,24.86,0,0,0,681.88,224.22Z"/><path class="cls-19" d="M690.91,196.75l-.09,16.19-8.88-.09A22.5,22.5,0,0,0,676.4,205Z"/><path class="cls-19" d="M642.68,204.62a23.14,23.14,0,0,0-5.62,7.76l-8.89,0,.09-16.15Z"/></g></g><path class="cls-23" d="M852.32,137.59a11.15,11.15,0,0,1,5.85,9.84v.79L854.41,146v-1.05a3.9,3.9,0,0,0-2-3.67c-1.27-.75-2-.49-2,1.32,0,5.2,7.77,10.78,7.77,18,0,4.05-2,5.16-5.93,2.84a11.2,11.2,0,0,1-5.92-9.87V152l3.75,2.22v1.81a4,4,0,0,0,2.06,3.68c1.27.75,2.06.57,2.06-1.24,0-5.2-7.77-10.78-7.77-18C846.46,136.43,848.45,135.3,852.32,137.59Z"/><path class="cls-23" d="M864.46,155.74l5.45,3.24v3.61l-5.45-3.23v7.4l6.86,4.08v3.61L860.48,168V142.73l10.84,6.43v3.61l-6.86-4.07Z"/><path class="cls-23" d="M882.09,180.84a9.68,9.68,0,0,1-.36-3.32v-4a4.88,4.88,0,0,0-2.6-4.76l-1.38-.81v10.3l-4-2.36V150.62l6,3.55c4.12,2.45,5.89,5.41,5.89,9.32v2c0,2.6-.84,3.81-2.61,3.59A9.23,9.23,0,0,1,885.7,176v3.9a9.41,9.41,0,0,0,.44,3.33Zm-4.34-24.25v7.77l1.56.92c1.48.88,2.38.76,2.38-1.26v-2.5a4,4,0,0,0-2-3.8Z"/><path class="cls-23" d="M894.23,183.38l3-18.83,3.65,2.16-3.9,23-5.92-3.51-3.91-27.61,4,2.38Z"/><path class="cls-23" d="M906.73,180.82l5.46,3.24v3.61l-5.46-3.23v7.4l6.87,4.08v3.61l-10.84-6.43V167.81l10.84,6.43v3.61l-6.87-4.07Z"/><path class="cls-23" d="M924.36,205.92a10,10,0,0,1-.36-3.32v-4a4.86,4.86,0,0,0-2.6-4.76l-1.37-.81v10.3l-4-2.36V175.7l6,3.55c4.12,2.45,5.89,5.41,5.89,9.31v2c0,2.6-.83,3.81-2.6,3.59a9.23,9.23,0,0,1,2.64,7V205a9.4,9.4,0,0,0,.43,3.33ZM920,181.67v7.76l1.55.93c1.48.87,2.39.76,2.39-1.26v-2.5a4,4,0,0,0-2-3.8Z"/><polyline class="cls-12" points="957.3 1068.78 919.03 1107.05 880.77 1068.78"/><path class="cls-10" d="M1071.39,165.28A153.36,153.36,0,0,1,918,318.64"/><circle class="cls-8" cx="919.16" cy="776.99" r="18.79"/><path class="cls-12" d="M919.16,797.59a20.6,20.6,0,1,1,20.6-20.6A20.63,20.63,0,0,1,919.16,797.59Zm0-37.57a17,17,0,1,0,17,17A17,17,0,0,0,919.16,760Z"/><path class="cls-23" d="M909.74,770.65l4.23,1.42a7.77,7.77,0,0,0,4.92,0c3.7-.91,11.72-2.5,11.8-2.52l-.3-1.51-.06,0L922.7,767a11,11,0,0,0-3,.08l-10.2,2a3,3,0,0,0-2.83,4.35,3.15,3.15,0,0,0,.75.94,2.94,2.94,0,0,0-1,1.44,3,3,0,0,0,.19,2.29,1.25,1.25,0,0,1-.19,2.41,3,3,0,0,0,.19,2.28,3,3,0,0,0,1.75,1.49l7.36,2.35a3.23,3.23,0,0,0,1.48.06l12.92-3s-.08-.33-.17-.75a.77.77,0,0,0-.92-.57l-11.76,2.69a3.22,3.22,0,0,1-1.48-.06l-7-2.23a1.38,1.38,0,0,1-.85-.72,1.43,1.43,0,0,1-.1-1.11,1.47,1.47,0,0,1,1.84-1l6,1.9a3.37,3.37,0,0,0,1.48.07l12.92-3s-.08-.34-.17-.75a.78.78,0,0,0-.92-.58l-11.76,2.7a3.36,3.36,0,0,1-1.48-.07l-7-2.22a1.47,1.47,0,0,1-.95-1.84,1.47,1.47,0,0,1,1.84-.95l6.07,1.94a3.23,3.23,0,0,0,1.48.06l12.92-3s-.08-.33-.17-.75a.77.77,0,0,0-.92-.57l-11.76,2.69a3.36,3.36,0,0,1-1.48-.06l-7-2.23a1.47,1.47,0,0,1-1-1.84A1.47,1.47,0,0,1,909.74,770.65Z"/><circle class="cls-9" cx="919.87" cy="822.69" r="18.79"/><path class="cls-12" d="M919.87,843.29a20.6,20.6,0,1,1,20.6-20.6A20.62,20.62,0,0,1,919.87,843.29Zm0-37.57a17,17,0,1,0,17,17A17,17,0,0,0,919.87,805.72Z"/><path class="cls-23" d="M919.87,811.85a5.56,5.56,0,1,0,5.56,5.56A5.57,5.57,0,0,0,919.87,811.85Z"/><path class="cls-23" d="M929.41,827.41a5,5,0,0,0-.56-1,6.93,6.93,0,0,0-4.78-3,1,1,0,0,0-.71.17,5.93,5.93,0,0,1-7,0,.88.88,0,0,0-.7-.17,6.87,6.87,0,0,0-4.78,3,6,6,0,0,0-.56,1,.53.53,0,0,0,0,.46,10.28,10.28,0,0,0,.66,1,8.93,8.93,0,0,0,1.12,1.26,13.06,13.06,0,0,0,1.11,1,11.06,11.06,0,0,0,13.21,0,12.55,12.55,0,0,0,2.23-2.23,8.64,8.64,0,0,0,.65-1A.41.41,0,0,0,929.41,827.41Z"/><circle class="cls-7" cx="918.34" cy="732.99" r="18.79"/><path class="cls-12" d="M918.34,753.59a20.6,20.6,0,1,1,20.6-20.6A20.63,20.63,0,0,1,918.34,753.59Zm0-37.57a17,17,0,1,0,17,17A17,17,0,0,0,918.34,716Z"/><path class="cls-23" d="M909.17,726.9l4.22,1.42a7.89,7.89,0,0,0,4.93,0c3.7-.92,11.71-2.51,11.79-2.52l-.29-1.51h-.06l-7.63-1.07a11,11,0,0,0-3,.07l-10.21,2a3,3,0,0,0-2.82,4.36,1.25,1.25,0,0,1-.26,2.38,3,3,0,0,0,.19,2.29,3.15,3.15,0,0,0,.8,1,3,3,0,0,0-1,1.43A2.94,2.94,0,0,0,906,739a3,3,0,0,0,1.75,1.48l7.36,2.36a3.52,3.52,0,0,0,1.48.06l12.92-3s-.08-.34-.17-.75a.78.78,0,0,0-.92-.58l-11.76,2.7a3.36,3.36,0,0,1-1.48-.07l-7-2.22a1.45,1.45,0,0,1-1-1.84,1.47,1.47,0,0,1,1.84-1l6,1.91a3.22,3.22,0,0,0,1.48.06l12.92-3s-.08-.33-.17-.74a.76.76,0,0,0-.92-.58l-11.76,2.69a3.21,3.21,0,0,1-1.48-.06l-7-2.22a1.46,1.46,0,0,1,.89-2.79l6.07,1.93a3.37,3.37,0,0,0,1.48.07l12.92-3s-.08-.34-.17-.75a.78.78,0,0,0-.92-.58L916.73,732a3.36,3.36,0,0,1-1.48-.07l-7-2.22a1.45,1.45,0,0,1-.95-1.84A1.46,1.46,0,0,1,909.17,726.9Z"/><circle class="cls-6" cx="920.46" cy="677.23" r="26.05"/><path class="cls-12" d="M920.46,705.8A28.57,28.57,0,1,1,949,677.23,28.61,28.61,0,0,1,920.46,705.8Zm0-52.1A23.53,23.53,0,1,0,944,677.23,23.55,23.55,0,0,0,920.46,653.7Z"/><path class="cls-23" d="M908.77,669.25l5.59,1.87c.46.2,2.64,1,6.52,0,4.89-1.21,15.49-3.3,15.6-3.32l-.4-2H936l-10.1-1.41a14.49,14.49,0,0,0-4,.1l-13.5,2.6a4,4,0,0,0-4,2.72,3.9,3.9,0,0,0,1.24,4.22,4,4,0,0,0-1.34,1.9,3.9,3.9,0,0,0,.26,3,4,4,0,0,0,1.06,1.27,3.92,3.92,0,0,0,1.25,6.83l9.74,3.09a4.32,4.32,0,0,0,2,.08l17.08-3.88-.22-1a1,1,0,0,0-1.22-.76l-15.56,3.53a4.29,4.29,0,0,1-1.95-.08l-9.21-2.92a1.9,1.9,0,0,1-1.13-1,1.86,1.86,0,0,1-.12-1.46,2,2,0,0,1,2.43-1.25s5.63,1.78,7.94,2.51a4.32,4.32,0,0,0,2,.08l17.08-3.89-.22-1a1,1,0,0,0-1.22-.75L918.67,682a4.29,4.29,0,0,1-1.95-.08L907.51,679a1.93,1.93,0,0,1-1.13-.95,1.86,1.86,0,0,1-.12-1.46,1.94,1.94,0,0,1,2.43-1.25l8,2.54a4.33,4.33,0,0,0,2,.08l17.09-3.88s-.1-.44-.23-1a1,1,0,0,0-1.22-.76l-15.55,3.53a4.33,4.33,0,0,1-2-.08l-9.2-2.92a1.93,1.93,0,0,1-1.26-2.41A1.94,1.94,0,0,1,908.77,669.25Z"/><circle class="cls-11" cx="164.43" cy="164.13" r="125.61"/><path class="cls-24" d="M145.81,258.57a9.18,9.18,0,0,0-8.31,0l-37.43,20.2c-2.3,1.33-1.57,4.46.72,5.78l15.49,8.95a9.24,9.24,0,0,0,8.32,0l36.7-21.19c2.29-1.33,2.76-5.16.46-6.48Z"/><path class="cls-24" d="M278.38,234.83,238,213.91a4.07,4.07,0,0,0-3.65.15l-68.68,37.39c-1.08.62-.76,3.58.18,4.12L206,278.72a4,4,0,0,0,3.64-.15l68.24-39.4C278.91,238.55,279.31,235.37,278.38,234.83Z"/><path class="cls-12" d="M209.59,276.13a4,4,0,0,1-3.64.15l-40.11-23.15c-.94-.54-.82-1.48.26-2.11l68.24-39.4a4.07,4.07,0,0,1,3.65-.15l40.1,23.16c.94.54.82,1.48-.26,2.1Z"/><polygon class="cls-7" points="212.06 271.02 174.96 249.6 235.14 214.85 272.25 236.27 212.06 271.02"/><path class="cls-24" d="M191.86,263.6a4.85,4.85,0,0,1-4.36.18c-1.12-.65-1-1.77.31-2.52a4.88,4.88,0,0,1,4.36-.18C193.29,261.73,193.15,262.85,191.86,263.6Z"/><polygon class="cls-24" points="272.25 236.27 235.89 215.28 235.92 215.27 235.14 214.85 174.96 249.6 175.73 250.02 234.58 216.04 270.95 237.04 272.25 236.27"/><path class="cls-12" d="M145.81,256.58a9.18,9.18,0,0,0-8.31,0l-36.71,21.18c-2.29,1.33-2.29,3.48,0,4.8l15.49,8.95a9.24,9.24,0,0,0,8.32,0l36.7-21.19c2.29-1.33,2.29-3.48,0-4.8Z"/><path class="cls-24" d="M106.88,284.07l6.75,3.9a2.12,2.12,0,0,0,1.93,0,.59.59,0,0,0,0-1.12L108.81,283a2.12,2.12,0,0,0-1.93,0A.59.59,0,0,0,106.88,284.07Zm2,0a1.08,1.08,0,0,1,1,0l3.76,2.17c.27.15.27.4,0,.56a1.08,1.08,0,0,1-1,0l-3.76-2.17C108.59,284.5,108.59,284.25,108.86,284.1Z"/><rect class="cls-24" x="147.83" y="261.86" width="5.97" height="1" rx="0.5" transform="translate(150.25 564.98) rotate(-150)"/><path class="cls-7" d="M139.86,258.47l16.94,10.17a1.35,1.35,0,0,1,0,2.33l-31.9,18.22a1.93,1.93,0,0,1-1.88,0l-16-8.82a1.92,1.92,0,0,1-.07-3.33l31-18.59A1.93,1.93,0,0,1,139.86,258.47Z"/><path class="cls-24" d="M266.38,169.37l-6.9,3.61-69.2-40a5,5,0,0,0-4.52.19L66.4,202.12c-1.14-.64-6.35-3.14-6.35-3.14l2.53,6.58h0a1.51,1.51,0,0,0,.71.79l72.88,42.08a5.06,5.06,0,0,0,4.52-.19l122.14-70.52a2.18,2.18,0,0,0,1-1.09h0Z"/><path class="cls-13" d="M265.31,170.51,140.14,242.78a5.13,5.13,0,0,1-4.63.19l-74.7-43.13c-1.19-.68-1-1.88.33-2.67L186.32,124.9a5.13,5.13,0,0,1,4.63-.19l74.7,43.13C266.83,168.52,266.68,169.72,265.31,170.51Z"/><path class="cls-12" d="M80.29,195.8l104-60.05a2.24,2.24,0,0,1,2.24,0l37,21.43a.8.8,0,0,1,0,1.38l-104,60a2.24,2.24,0,0,1-2.24,0l-37.09-21.4A.8.8,0,0,1,80.29,195.8Z"/><polygon class="cls-23" points="189.34 141.18 98.99 193.34 94.97 191.03 185.32 138.86 189.34 141.18"/><polygon class="cls-23" points="199.19 146.86 114.44 195.79 110.42 193.47 195.18 144.54 199.19 146.86"/><polygon class="cls-23" points="205.61 150.57 105.82 208.18 101.8 205.86 201.59 148.25 205.61 150.57"/><polygon class="cls-23" points="212.02 154.27 112.24 211.88 108.22 209.56 208 151.95 212.02 154.27"/><polygon class="cls-23" points="218.44 157.97 118.65 215.59 114.64 213.27 214.42 155.66 218.44 157.97"/><polygon class="cls-23" points="93.53 196.5 89.51 198.82 85.49 196.5 89.51 194.18 93.53 196.5"/><polygon class="cls-23" points="107.7 199.69 99.36 204.5 95.34 202.18 103.68 197.37 107.7 199.69"/><path class="cls-12" d="M188.31,210.34l28.05-16.2a1.21,1.21,0,0,0,0-2.29l-19.18-11.07a4.41,4.41,0,0,0-4,0L165.16,197a1.21,1.21,0,0,0,0,2.29l19.18,11.08A4.41,4.41,0,0,0,188.31,210.34Z"/><path class="cls-24" d="M55.28,107.56v83.69c0,4,1.12,4.67,4.62,6.63l.08-.1L186.78,27.87l-.89-.41-.38-.17a5.46,5.46,0,0,0-.59-.3,7.76,7.76,0,0,0-1.37-.56,6.26,6.26,0,0,0-2.08-.26,6.39,6.39,0,0,0-2.31.58,8.48,8.48,0,0,0-1,.5L62,94C57.86,96.44,55.28,102.75,55.28,107.56Z"/><path class="cls-12" d="M62,197.91l124.43-71.64a6.41,6.41,0,0,0,3.21-5.55V32.79c0-2.82-3.06-6.45-5.51-5L64.2,96.79c-3.18,1.83-5.14,7.08-5.14,10.74v88.69A2,2,0,0,0,62,197.91Z"/><path class="cls-7" d="M182.9,124.45a7.29,7.29,0,0,0,3.65-6.32V36.34a2.82,2.82,0,0,0-4.23-2.45l-116.41,67a7.51,7.51,0,0,0-3.77,6.51v80.23a3.65,3.65,0,0,0,5.47,3.17Z"/><polygon class="cls-23" points="172.34 53.88 172.34 108.08 78.26 162.49 78.17 108.35 172.34 53.88"/><path class="cls-7" d="M95.44,104.24a4.2,4.2,0,0,1-1.91,3.27c-1.06.6-1.91.13-1.91-1.07a4.17,4.17,0,0,1,1.91-3.27C94.58,102.56,95.44,103,95.44,104.24Z"/><path class="cls-7" d="M90,107.36a4.2,4.2,0,0,1-1.91,3.27c-1.06.61-1.91.13-1.91-1.07a4.17,4.17,0,0,1,1.91-3.27C89.11,105.69,90,106.17,90,107.36Z"/><path class="cls-7" d="M84.5,110.49a4.2,4.2,0,0,1-1.91,3.27c-1,.6-1.91.13-1.91-1.07a4.2,4.2,0,0,1,1.91-3.27C83.64,108.81,84.5,109.29,84.5,110.49Z"/><polygon class="cls-6" points="170.35 67.81 170.35 71.76 80.58 123.68 80.5 119.78 170.35 67.81"/><polygon class="cls-6" points="150.82 270.68 147.22 268.5 143.21 270.86 146.81 273.04 150.82 270.68"/><polygon class="cls-23" points="145.58 267.51 141.98 265.33 137.97 267.69 141.57 269.87 145.58 267.51"/><polygon class="cls-23" points="140.35 264.34 136.75 262.16 132.74 264.52 136.34 266.7 140.35 264.34"/><polygon class="cls-23" points="145.11 274.04 141.51 271.86 137.5 274.22 141.1 276.4 145.11 274.04"/><polygon class="cls-23" points="139.88 270.87 136.28 268.69 132.27 271.05 135.87 273.23 139.88 270.87"/><polygon class="cls-23" points="134.64 267.7 131.04 265.52 127.03 267.88 130.63 270.06 134.64 267.7"/><polygon class="cls-23" points="139.41 277.39 135.81 275.21 131.8 277.57 135.4 279.75 139.41 277.39"/><polygon class="cls-23" points="133.71 280.75 130.11 278.57 126.1 280.93 129.7 283.11 133.71 280.75"/><polygon class="cls-23" points="123.24 274.41 119.64 272.23 115.63 274.59 119.22 276.77 123.24 274.41"/><polygon class="cls-6" points="134.18 274.22 130.58 272.04 126.56 274.4 130.16 276.58 134.18 274.22"/><polygon class="cls-23" points="128.94 271.05 125.34 268.87 121.33 271.23 124.93 273.41 128.94 271.05"/><polygon class="cls-6" points="210.45 231.86 242.09 250.52 258.85 240.76 227.21 222.1 210.45 231.86"/><polygon class="cls-23" points="207.72 233.45 239.36 252.11 240.23 251.6 208.59 232.94 207.72 233.45"/><polygon class="cls-23" points="205.36 234.82 237 253.48 237.87 252.98 206.23 234.31 205.36 234.82"/><polygon class="cls-23" points="203 236.19 234.64 254.86 235.51 254.35 203.87 235.69 203 236.19"/><polygon class="cls-23" points="229.87 220.27 261.51 238.93 264.37 237.43 232.73 218.77 229.87 220.27"/><polygon class="cls-23" points="208.54 262.72 204.94 260.54 200.93 262.9 204.53 265.08 208.54 262.72"/><polygon class="cls-6" points="201.31 258.56 197.71 256.38 193.7 258.74 197.3 260.92 201.31 258.56"/><polygon class="cls-23" points="194.09 254.39 190.49 252.21 186.47 254.57 190.07 256.75 194.09 254.39"/><text class="cls-25" transform="matrix(0.86, -0.51, 0, 0.79, 83.49, 150.79)">CLIENT</text><polyline class="cls-12" points="204.02 1066.98 165.76 1105.25 127.49 1066.98"/><path class="cls-12" d="M104,759.24v-19h5.6v6.44h33.6v6.16H109.6v6.44Z"/><path class="cls-12" d="M104,737.51v-6.16h39.2v6.16Z"/><path class="cls-12" d="M131.83,713.82,104,709.62v-8.57h39.2v5.83H115.08l28.12,4.25V717l-27.72,4.59H143.2v5.38H104v-8.57Z"/><path class="cls-12" d="M120.52,690.41V682h5.6v8.45H137.6V679.77h5.6v16.8H104v-16.8h5.6v10.64Z"/><path class="cls-10" d="M317.21,163.86A153.36,153.36,0,1,0,163.86,317.21V1067"/><path class="cls-10" d="M316.91,163.48A153.36,153.36,0,0,1,163.55,316.84"/><rect class="cls-26" x="1015.11" y="568.68" width="403.35" height="154.89"/><rect class="cls-7" x="1060.52" y="580.13" width="160.11" height="45.74"/><rect class="cls-7" x="1070.52" y="632.73" width="3.93" height="83.36"/><text class="cls-27" transform="translate(1051.71 613.23)"><tspan xml:space="preserve"> /BOOKS/1</tspan></text><text class="cls-28" transform="translate(1081.14 652.24)">{<tspan x="0" y="18" xml:space="preserve">  &quot;title&quot;: &quot;A book&quot;,</tspan><tspan x="0" y="36" xml:space="preserve">  &quot;author&quot;: &quot;/authors/1&quot;</tspan><tspan x="0" y="54">}</tspan></text><circle class="cls-29" cx="1014.59" cy="651.24" r="31.05"/><path class="cls-23" d="M1000.66,641.55l6.66,2.24c.55.24,3.15,1.19,7.77,0,5.83-1.44,18.46-4,18.59-4l-.47-2.37-.08,0-12-1.7a17.33,17.33,0,0,0-4.77.12l-16.09,3.13a4.7,4.7,0,0,0-4.75,3.26,4.65,4.65,0,0,0,.3,3.6,4.59,4.59,0,0,0,1.18,1.47,4.72,4.72,0,0,0,0,7.42,4.72,4.72,0,0,0-1.27,5.87,4.68,4.68,0,0,0,2.77,2.33l11.6,3.71a5.1,5.1,0,0,0,2.33.1l20.36-4.66-.27-1.18a1.21,1.21,0,0,0-1.45-.91l-18.54,4.24a5.24,5.24,0,0,1-2.33-.09l-11-3.51a2.29,2.29,0,0,1-1.34-1.14,2.25,2.25,0,0,1-.15-1.76,2.32,2.32,0,0,1,2.9-1.49s6.71,2.13,9.46,3a5.1,5.1,0,0,0,2.33.1l20.36-4.66-.27-1.18a1.21,1.21,0,0,0-1.45-.91l-18.54,4.24a5.24,5.24,0,0,1-2.33-.09l-11-3.51a2.29,2.29,0,0,1-1.34-1.14,2.25,2.25,0,0,1-.15-1.76,2.32,2.32,0,0,1,2.9-1.5l9.57,3.06a5.24,5.24,0,0,0,2.33.1l20.36-4.67-.27-1.18a1.21,1.21,0,0,0-1.45-.91l-18.53,4.25a5.29,5.29,0,0,1-2.34-.1l-11-3.51a2.31,2.31,0,0,1-1.5-2.9A2.29,2.29,0,0,1,1000.66,641.55Z"/><rect class="cls-26" x="1015.11" y="351" width="403.35" height="195.95"/><rect class="cls-6" x="1060.52" y="362.45" width="127.16" height="45.74"/><rect class="cls-6" x="1070.52" y="415.05" width="3.93" height="118.48"/><text class="cls-27" transform="translate(1051.71 395.55)"><tspan xml:space="preserve"> /BOOKS</tspan></text><text class="cls-28" transform="translate(1081.14 434.57)">{<tspan x="0" y="18" xml:space="preserve">  </tspan><tspan class="cls-30" x="19.79" y="18">&quot;member&quot;:</tspan><tspan class="cls-31" x="100.76" y="18"> </tspan><tspan class="cls-30" x="106.16" y="18">[</tspan><tspan class="cls-32"><tspan x="0" y="36">	</tspan><tspan class="cls-30" x="36" y="36">&quot;/books/1</tspan><tspan class="cls-33" x="116.97" y="36">?preload=</tspan><tspan class="cls-34" x="197.94" y="36">\</tspan><tspan class="cls-33" x="206.93" y="36">&quot;/author</tspan><tspan class="cls-30" x="278.91" y="36">\</tspan><tspan class="cls-35" x="287.9" y="36">&quot;</tspan><tspan class="cls-30" x="296.9" y="36">&quot;,</tspan><tspan x="0" y="54">	</tspan><tspan class="cls-30" x="36" y="54">&quot;/books/2</tspan><tspan class="cls-33" x="116.97" y="54">?preload=</tspan><tspan class="cls-34" x="197.94" y="54">\</tspan><tspan class="cls-33" x="206.93" y="54">&quot;/author</tspan><tspan class="cls-30" x="278.91" y="54">\</tspan><tspan class="cls-35" x="287.9" y="54">&quot;</tspan><tspan class="cls-30" x="296.9" y="54">&quot;</tspan></tspan><tspan class="cls-30"><tspan x="0" y="72" xml:space="preserve">  ]</tspan></tspan><tspan x="0" y="90">}</tspan></text><circle class="cls-36" cx="1014.59" cy="451.54" r="31.05"/><path class="cls-23" d="M1000.66,441.84l6.66,2.24c.55.24,3.15,1.2,7.77.05,5.83-1.45,18.46-3.95,18.59-4l-.47-2.37h-.08l-12-1.69a17.33,17.33,0,0,0-4.77.12l-16.09,3.12a4.71,4.71,0,0,0-4.75,3.27,4.65,4.65,0,0,0,.3,3.6,4.7,4.7,0,0,0,1.18,1.47,4.64,4.64,0,0,0-1.6,2.28,4.72,4.72,0,0,0,.31,3.61,4.81,4.81,0,0,0,1.26,1.53,4.71,4.71,0,0,0-1.57,2.26,4.77,4.77,0,0,0,.3,3.61,4.68,4.68,0,0,0,2.77,2.33L1010,467a5.24,5.24,0,0,0,2.33.1l20.36-4.67-.27-1.17a1.2,1.2,0,0,0-1.45-.91l-18.54,4.24a5.1,5.1,0,0,1-2.33-.1l-11-3.5a2.32,2.32,0,0,1-1.34-1.14,2.25,2.25,0,0,1-.15-1.76,2.32,2.32,0,0,1,2.9-1.5s6.71,2.13,9.46,3a5.24,5.24,0,0,0,2.33.1l20.36-4.67-.27-1.18a1.2,1.2,0,0,0-1.45-.9l-18.54,4.24a5.24,5.24,0,0,1-2.33-.1l-11-3.5a2.32,2.32,0,0,1-1.34-1.14,2.25,2.25,0,0,1-.15-1.76,2.32,2.32,0,0,1,2.9-1.5l9.57,3.06a5.24,5.24,0,0,0,2.33.09l20.36-4.66-.27-1.18a1.21,1.21,0,0,0-1.45-.91l-18.53,4.24a5.14,5.14,0,0,1-2.34-.09l-11-3.51a2.28,2.28,0,0,1-1.35-1.14,2.25,2.25,0,0,1-.15-1.76A2.31,2.31,0,0,1,1000.66,441.84Z"/><rect class="cls-26" x="1015.11" y="744.17" width="403.35" height="154.89"/><rect class="cls-8" x="1060.52" y="755.62" width="160.11" height="45.74"/><rect class="cls-8" x="1070.52" y="808.22" width="3.93" height="83.36"/><text class="cls-27" transform="translate(1051.71 788.72)"><tspan xml:space="preserve"> /BOOKS/2</tspan></text><text class="cls-28" transform="translate(1081.14 827.74)">{<tspan x="0" y="18" xml:space="preserve">  &quot;title&quot;: &quot;Another book&quot;,</tspan><tspan x="0" y="36" xml:space="preserve">  &quot;author&quot;: &quot;/authors/1&quot;</tspan><tspan x="0" y="54">}</tspan></text><circle class="cls-37" cx="1014.59" cy="826.74" r="31.05"/><path class="cls-23" d="M1000.66,817l6.66,2.24c.55.24,3.15,1.19,7.77.05,5.83-1.45,18.46-4,18.59-4l-.47-2.38-.08,0-12-1.7a17.33,17.33,0,0,0-4.77.13l-16.09,3.12a4.71,4.71,0,0,0-4.45,6.87,4.82,4.82,0,0,0,1.18,1.47,4.64,4.64,0,0,0-1.6,2.28,4.73,4.73,0,0,0,1.57,5.13,4.73,4.73,0,0,0-1.27,5.87,4.69,4.69,0,0,0,2.77,2.34l11.6,3.71a5.24,5.24,0,0,0,2.33.1l20.36-4.67-.27-1.18a1.21,1.21,0,0,0-1.45-.91l-18.54,4.25a5.24,5.24,0,0,1-2.33-.1l-11-3.51a2.26,2.26,0,0,1-1.34-1.14,2.23,2.23,0,0,1-.15-1.75,2.31,2.31,0,0,1,2.9-1.5l9.46,3a5.09,5.09,0,0,0,2.33.09l20.36-4.66-.27-1.18a1.21,1.21,0,0,0-1.45-.91l-18.54,4.25a5.24,5.24,0,0,1-2.33-.1l-11-3.51a2.26,2.26,0,0,1-1.34-1.14,2.23,2.23,0,0,1-.15-1.75,2.31,2.31,0,0,1,2.9-1.5l9.57,3.05a5.24,5.24,0,0,0,2.33.1l20.36-4.67-.27-1.18a1.2,1.2,0,0,0-1.45-.9L1012.58,825a5.15,5.15,0,0,1-2.34-.1l-11-3.5a2.31,2.31,0,0,1-1.35-1.14,2.25,2.25,0,0,1-.15-1.76A2.3,2.3,0,0,1,1000.66,817Z"/><rect class="cls-26" x="1014.41" y="917.03" width="404.05" height="157.52"/><rect class="cls-9" x="1060.52" y="928.26" width="195.74" height="45.74"/><rect class="cls-9" x="1070.52" y="980.87" width="4.24" height="81.78"/><text class="cls-27" transform="translate(1051.71 962.11)"><tspan xml:space="preserve"> /AUTHORS/1</tspan></text><text class="cls-28" transform="translate(1082.38 999.22)">{<tspan x="0" y="19" xml:space="preserve">  &quot;name&quot;: &quot;John Doe&quot;,</tspan><tspan x="0" y="38" xml:space="preserve">  &quot;bio&quot;: &quot;Lorem ipsum...&quot;</tspan><tspan x="0" y="57">}</tspan></text><circle class="cls-38" cx="1014.59" cy="998.91" r="31.05"/><path class="cls-23" d="M1014.3,982.23a9.19,9.19,0,1,0,9.18,9.18A9.21,9.21,0,0,0,1014.3,982.23Z"/><path class="cls-23" d="M1030.06,1007.93a8.54,8.54,0,0,0-.92-1.68,11.4,11.4,0,0,0-7.9-5,1.71,1.71,0,0,0-1.17.28,9.81,9.81,0,0,1-11.55,0,1.5,1.5,0,0,0-1.16-.28,11.3,11.3,0,0,0-7.9,5,9.85,9.85,0,0,0-.92,1.68.87.87,0,0,0,0,.77,18.41,18.41,0,0,0,2.92,3.69c.57.56,1.21,1.08,1.85,1.6a18.29,18.29,0,0,0,21.82,0,17.58,17.58,0,0,0,1.84-1.6,19.58,19.58,0,0,0,1.85-2.09,14,14,0,0,0,1.08-1.6A.7.7,0,0,0,1030.06,1007.93Z"/><polyline class="cls-39" points="1434.83 1087.78 1434.83 1093.78 1428.83 1093.78"/><line class="cls-40" x1="1416.67" y1="1093.78" x2="985.11" y2="1093.78"/><polyline class="cls-39" points="979.03 1093.78 973.03 1093.78 973.03 1087.78"/><line class="cls-41" x1="973.03" y1="1075.9" x2="973.03" y2="345.12"/><polyline class="cls-39" points="973.03 339.18 973.03 333.18 979.03 333.18"/><line class="cls-40" x1="991.19" y1="333.18" x2="1422.75" y2="333.18"/><polyline class="cls-39" points="1428.83 333.18 1434.83 333.18 1434.83 339.18"/><line class="cls-41" x1="1434.83" y1="351.06" x2="1434.83" y2="1081.84"/><line class="cls-42" x1="1094.71" y1="298.3" x2="1094.71" y2="333.18"/><circle class="cls-12" cx="1090.95" cy="232.43" r="66.14"/><path class="cls-23" d="M1091,305.58a73.15,73.15,0,1,1,73.14-73.15A73.23,73.23,0,0,1,1091,305.58Zm0-132.29a59.15,59.15,0,1,0,59.14,59.14A59.22,59.22,0,0,0,1091,173.29Z"/><text class="cls-43" transform="translate(1058.54 260.12)">API</text><circle class="cls-42" cx="1090.71" cy="232.68" r="72.9"/><text class="cls-5" transform="matrix(1, 0.05, -0.05, 1, 329.71, 499.57)">GET <tspan class="cls-44" x="55.41" y="0">/books</tspan><tspan class="cls-45" x="117.79" y="0">?preload=&quot;/member/*/author&quot;</tspan></text></svg>